<svg xmlns="http://www.w3.org/2000/svg" width="128" height="128" viewBox="0 0 128 128" preserveAspectRatio="none" fill="none">
  <rect width="128" height="128" rx="4" fill="none"/>
  <g transform="rotate(0) translate(0 -2)">

<path d="m 48 57 l 6 -10 l 12 0 l 6 10 l -6 10 l -12 0 l 0 0 t 0 0 l 0 0 m 0 0 l -6 -10 m 24 0 h 12 l 6 10 l -6 10 h -12 l -6 -10 m -12 0 l -6 10 l 6 -10 L 66 67 z M 72 77 L 84 77 L 90 87 L 84 97 L 72 97 L 66 87 Z M 54 67 L 48 57 H 36 L 31 67 L 36 77 L 48 77 Z M 72 57 L 66 47 L 72 37 L 84 37 L 90 47 L 84 57 L 72 57 L 66 47 Z M 48 77 L 54 67 Z" stroke="black" stroke-width="0.4" fill="white" fill-opacity="0.5"/></g>
</svg>
