<svg viewBox="12 12 100 100" width="128" height="128" xmlns="http://www.w3.org/2000/svg">
  <path fill="black" fill-opacity="0.5" stroke-color="white" stroke-width="0.4" d="M 65.435 52.188 L 66.256 53.666 L 67.019 55.042 L 73.555 55.157 L 76.109 50.911 L 76.92 49.562 L 76.157 48.186 L 74.516 45.231 L 73.752 43.855 L 67.216 43.741 L 66.405 45.089 L 63.851 49.334 Z M 66.201 56.791 L 64.458 59.687 L 63.647 61.036 L 64.411 62.411 L 66.052 65.366 L 66.815 66.743 L 73.351 66.857 L 75.905 62.612 L 76.716 61.264 L 75.953 59.888 L 73.548 55.556 L 67.012 55.442 Z M 64.116 59.481 L 65.859 56.585 L 66.669 55.236 L 63.502 49.528 L 56.965 49.414 L 56.154 50.763 L 55.282 52.211 L 53.599 55.008 L 56.004 59.34 L 56.767 60.715 L 63.304 60.83 Z M 65.997 68.492 L 65.126 69.94 L 64.254 71.388 L 63.442 72.736 L 65.847 77.067 L 66.61 78.443 L 73.146 78.557 L 73.958 77.209 L 75.701 74.313 L 76.512 72.964 L 75.748 71.588 L 73.344 67.257 L 66.808 67.143 Z M 51.79 55.241 L 50.208 55.276 L 48.625 55.313 L 47.153 55.345 L 46.37 56.637 L 43.907 60.7 L 45.9 65.028 L 46.528 66.389 L 53.053 66.502 L 53.864 65.154 L 55.607 62.258 L 56.418 60.909 L 55.655 59.534 L 53.252 55.207 Z" />
</svg>
