<svg xmlns="http://www.w3.org/2000/svg" class="db" id="canvas" width="960" height="960"><style xmlns="http://www.w3.org/1999/xhtml" type="text/css">.background { fill: none; stroke: rgb(221, 221, 221); }.foreground { fill: none; pointer-events: all; }</style><g transform="translate(25,25)" class="foreground" style="cursor: pointer; stroke-opacity: 0.5;"><path d="M654.7915190797748,522.641210214519L655.0891044339022,540.87086118521L638.1267392486463,540.87086118521L638.2259343666888,568.2623684776522L639.6146660192828,572.0623634824601L649.9309582956957,581.1352806211934L633.1669833465247,584.4472924449019L628.3064225624455,584.6545265356073L611.2448622591473,582.0660781397992L608.5665940720016,578.9655386612667L593.0921556573822,578.9655386612667L570.8724492158775,579.1720538715933L566.0118884317983,575.252765025539L559.1674252868705,577.62383513946L552.62054749607,577.727003534586L552.3229621419428,565.9044381682613L556.8859375718946,555.9942651459895L558.8698399327432,544.5144909003484L568.2933761467743,534.4084967851445L569.9796931534956,524.6486720641246L569.2853273271985,520.7355879244512L564.6231567792042,512.7268792522511L562.9368397724829,507.5334129246956L566.1110835498407,504.64094940347377L566.0118884317983,500.95439978747015L561.349717883804,489.3228236102419L556.8859375718946,482.5786504093661L564.5239616611618,480.10179292721654L590.7114728243639,480.10179292721654L593.0921556573822,480.6961174261675L596.3655945527825,492.30176315240817L600.9285699827344,498.3663134786133L616.2046181612689,498.2668110216172L617.5933498138629,489.81915524683967L624.041032486621,489.81915524683967L625.9257397294273,492.20242794447853L636.5396173599675,492.20242794447853L637.8291538945191,501.7511371216448L637.134788068222,511.92728212415886L641.0033976718769,518.330479355581L639.7138611373252,522.4405516731658L646.8559096363804,524.548260823103ZM563.5320104807375,469.91014916537233L558.9690350507857,474.2614538574369L556.29076686364,479.3094768041359L554.6044498569187,473.0743975757931L560.9529374116343,467.8345364507211Z" class="point" style="stroke: none; fill: rgb(244, 109, 67);"/><path d="M710.0431998294096,451.15249359797247L708.8528584129003,454.90065049461634L712.3246875443855,457.5646867813314L705.3810292814153,466.8463934336262L700.3220782612511,468.32866614615443L698.7349563725724,463.68533417044813L698.9333466086571,456.4792445804988L697.1478344838933,453.8155179658561L702.801956212312,454.50604301095575Z" class="point" style="stroke: none; fill: rgb(253, 174, 97);"/><path d="M484.1759160467919,332.31953921812044L483.1839648663676,334.9342456943823L486.15981840764056,341.65938791145913L483.4815502204949,348.0672379978563L477.2322577838217,354.75983355268505L476.4386968394822,364.7219097334855L476.6370870755671,377.53182895105425L467.61033133370574,378.820501286384L467.4119410976209,354.8596086670857L465.130453382645,346.7668630636054L460.46828283465067,343.6634802821167L461.5594291331174,338.3492500471594L470.88377022910606,334.6326937197837L474.05801400646385,330.6083656675193L477.82742849207625,326.27443443435686Z" class="point" style="stroke: none; fill: rgb(50, 136, 189);"/><path d="M455.9053074046988,304.6749079300384L455.3101366964442,307.8331085036929L462.15459984137203,320.5164149647841L471.3797458193182,327.0813736785317L474.05801400646385,330.6083656675193L470.88377022910606,334.6326937197837L461.5594291331174,338.3492500471594L452.63186850929856,337.14449178516867L449.6560149680256,338.3492500471594L431.0073327760484,338.3492500471594L431.5033083662605,351.1657196319471L423.46850380482357,347.26707917631217L418.21116254857463,348.96714413482937L412.45784570211356,347.6671872426248L407.7956751541193,343.1625996514854L410.77152869539225,330.2055545600062L417.1200162501079,327.0813736785317L420.69104049963545,317.68223102109425L426.84113781826625,318.5936372666275L430.2137718317089,312.10367876194834L437.0582349766367,310.7828356693664L447.6721126071769,303.2468774388574Z" class="point" style="stroke: none; fill: rgb(50, 136, 189);"/><path class="point"/><path d="M665.6037869464001,582.479942363979L671.3571037928612,592.4461796363485L672.94422568154,597.5588489100304L686.0379812631411,606.5765995588969L685.8395910270561,611.8467104264271L688.5178592142017,615.9718746117959L697.3462247199783,618.1985063771294L699.9252977890815,621.70528377767L691.791298109602,625.2217634938534L680.28466441668,634.97077495601L678.9951278821284,640.469216824807L670.8611282026488,646.3194414004644L668.3812502515882,653.1828895439621L661.7351773427451,655.1516448273425L654.4939337256476,653.2921730261874L650.5261290039504,650.0183213681154L646.756714518338,650.2362803384647L644.3760316853195,656.5757137313312L635.746056415628,664.7177094365996L626.8184957918091,664.0552434792497L628.2072274444032,655.6991452191563L624.6362031948756,647.7322934696871L621.4619594175178,645.1253167471594L621.3627642994753,620.0038296469374L629.6951542150396,620.0038296469374L629.7943493330821,587.1435088640659L648.8398119972289,584.3436857762645L652.1132508926293,588.3895191250358L655.5850800241144,585.3800643198863Z" class="point" style="stroke: none; fill: rgb(213, 62, 79);"/><path d="M645.5663731018287,338.9514126172926L651.9148606565444,347.5671656101388L650.7245192400353,357.1535449239088L656.4778360864963,357.95104115390325L656.1802507323689,360.84030471278453L662.0327626968724,362.33375523304727L666.4965430087819,369.39404938363333L675.027323160431,375.151726155309L676.4160548130251,380.4060465125214L681.2766155971043,382.58527720264476L683.9548837842499,388.42479616208425L675.721688986728,388.52371451127243L668.3812502515882,385.85227384586824L666.0005674185697,388.82045878329757L658.957714037557,388.1280302797077L649.9309582956957,392.47901859719934L645.8639584559561,390.5017093865999L642.4913244425134,396.036555092299L626.6201055557242,394.0603949892856L619.2796668205842,387.9301772867674L613.9231304462929,389.80949090544823L610.8480817869776,394.25803856392923L610.0545208426381,401.8629101406648L599.242252976013,400.6782637204703L592.7945703032549,401.9616225786601L589.7195216439395,412.2218056834335L588.8267655815577,406.9944235835666L580.395180547951,398.40716976920004L575.7330099999567,386.74290491384227L577.3201318886356,378.4240270390032L583.7678145613936,367.8042070853708L591.2074484145761,366.5119533412249L594.4808873099763,367.506035429619L602.1189113992435,363.82654591760445L609.7569354885109,363.32902142832137L614.2207158004203,358.05071407229025L614.0223255643355,355.1589144560594L624.6362031948756,354.2609088962921L635.4484710615006,344.76508745621425L636.0436417697553,341.358642056548L642.1937390883861,338.2488756408435Z" class="point" style="stroke: none; fill: rgb(254, 224, 139);"/><path d="M407.7956751541193,343.1625996514854L412.45784570211356,347.6671872426248L418.21116254857463,348.96714413482937L423.46850380482357,347.26707917631217L431.5033083662605,351.1657196319471L432.991235136897,361.93556688683395L430.2137718317089,365.31869148995224L426.74194270022383,375.4493125737949L430.2137718317089,387.83124805618456L419.5006990831263,386.44604491898986L405.0182118489312,388.82045878329757L390.83330996886343,394.45567592331946L390.33733437865124,389.9083844572982L391.6268709132029,381.8919955894738L382.30252981721424,375.94524276993235L384.5840175321902,372.07539418730573L382.89770052546885,367.506035429619L385.9727491847843,366.21367529273186L388.1550417817177,351.76504136047197L385.67516383065697,350.3664319761012L387.06389548325103,345.3657744054781L389.44457831626937,343.3629632240463L395.59467563490017,345.3657744054781L401.4471875994036,340.6567662346006L403.62948019633717,345.16556021023814Z" class="point" style="stroke: none; fill: rgb(50, 136, 189);"/><path d="M583.7678145613936,367.8042070853708L577.3201318886356,378.4240270390032L575.7330099999567,386.74290491384227L580.395180547951,398.40716976920004L588.8267655815577,406.9944235835666L589.7195216439395,412.2218056834335L586.1484973944121,414.9825043901809L576.030595354084,412.51762290185275L565.4167177235437,412.9120349715156L549.1487183645849,411.72876109805L548.8511330104576,412.81343310819466L537.7412797897052,412.81343310819466L536.1541579010262,411.334310830415L536.9477188453658,403.54085768019456L529.210499638056,396.62928630454684L526.0362558606982,390.60059085063756L528.2185484576316,381.8919955894738L538.8324260881719,372.27393856122404L542.8994259279117,371.67827531508823L550.4382548991365,375.4493125737949L556.1915717455976,363.9260421965653L556.6875473358097,360.2427364465329L561.2505227657615,357.05384371881587L561.7464983559737,352.0646562746231L564.6231567792042,350.6661906859716L565.019937251374,346.0664082473463L571.1700345700048,335.93914946818535L576.3281807082112,334.029477051779L576.9233514164658,328.2912413091835L573.1539369308534,326.67794033739233L571.8644003963018,320.4152598128579L574.8402539375747,320.4152598128579L578.3120830690599,324.45775191433523L580.7919610201207,333.72781211080576L580.1967903118662,340.05500646695236L584.1645950335634,346.0664082473463L572.9555466947686,346.96696034398894L570.8724492158775,349.8667648369048L581.1887414922904,359.64505930023324Z" class="point" style="stroke: none; fill: rgb(254, 224, 139);"/><path d="M683.9548837842499,388.42479616208425L686.732347089438,392.47901859719934L691.9896883456869,395.14735822257114L694.96554188696,392.77555792898954L699.5285173169118,394.15921755562044L703.694712274694,392.77555792898954L707.0673462881366,397.91335905546333L712.423882662428,401.7641964723409L711.4319314820036,410.5453702296133L715.7965166758706,413.7994179310201L704.7858585731606,424.4443008141885L702.9011513303544,430.1593358254031L701.8100050318877,442.5754423546589L695.7591028312993,451.2511125658542L697.1478344838933,453.8155179658561L698.9333466086571,456.4792445804988L698.7349563725724,463.68533417044813L700.3220782612511,468.32866614615443L699.7269075529966,472.2831697699681L701.9092001499301,478.1212479235237L701.0164440875483,481.3895920564262L703.1987366844818,486.8420855316751L708.4560779407307,492.40110097208384L711.6303217180885,499.85919796044544L696.2550784215115,502.24919612940346L691.6921029915596,508.7310951910601L694.2711760606629,513.5267010964042L692.3864688178567,530.3789443543294L697.2470296019358,535.517871678751L703.694712274694,533.6020205745348L701.8100050318877,542.793099817593L698.437371018445,544.6157936478713L692.1880785817718,536.7287262817366L685.5420056729289,534.8118425964683L683.756493548165,531.5870727563276L671.7538842650308,531.4863714967172L666.3973478907394,529.2720385737309L664.5126406479333,525.9543881805241L654.7915190797748,522.641210214519L646.8559096363804,524.548260823103L639.7138611373252,522.4405516731658L641.0033976718769,518.330479355581L637.134788068222,511.92728212415886L637.8291538945191,501.7511371216448L636.5396173599675,492.20242794447853L625.9257397294273,492.20242794447853L624.041032486621,489.81915524683967L617.5933498138629,489.81915524683967L616.2046181612689,498.2668110216172L600.9285699827344,498.3663134786133L596.3655945527825,492.30176315240817L593.0921556573822,480.6961174261675L590.7114728243639,480.10179292721654L564.5239616611618,480.10179292721654L558.3738643425311,481.7859102463282L556.29076686364,479.3094768041359L558.9690350507857,474.2614538574369L563.5320104807375,469.91014916537233L565.9126933137559,471.1954138257664L574.4434734654051,466.8463934336262L574.6418637014899,471.6898224759783L578.3120830690599,471.39317214991536L581.3871317283753,467.34044572206415L587.0412534567938,464.080386362576L589.8187167619819,459.1437556832158L590.0171069980668,448.78588396726116L595.0760580182309,441.5898630611309L602.7140821074981,435.38157216799516L604.301203996177,427.99162162129545L603.7060332879224,422.4734249740947L605.3923502946437,412.9120349715156L609.9553257245957,404.72508833376406L610.0545208426381,401.8629101406648L610.8480817869776,394.25803856392923L613.9231304462929,389.80949090544823L619.2796668205842,387.9301772867674L626.6201055557242,394.0603949892856L642.4913244425134,396.036555092299L645.8639584559561,390.5017093865999L649.9309582956957,392.47901859719934L658.957714037557,388.1280302797077L666.0005674185697,388.82045878329757L668.3812502515882,385.85227384586824L675.721688986728,388.52371451127243Z" class="point" style="stroke: none; fill: rgb(253, 174, 97);"/><path d="M610.0545208426381,401.8629101406648L609.9553257245957,404.72508833376406L605.3923502946437,412.9120349715156L603.7060332879224,422.4734249740947L604.301203996177,427.99162162129545L602.7140821074981,435.38157216799516L595.0760580182309,441.5898630611309L590.0171069980668,448.78588396726116L589.8187167619819,459.1437556832158L587.0412534567938,464.080386362576L581.3871317283753,467.34044572206415L578.3120830690599,471.39317214991536L574.6418637014899,471.6898224759783L574.4434734654051,466.8463934336262L565.9126933137559,471.1954138257664L563.5320104807375,469.91014916537233L560.9529374116343,467.8345364507211L554.6044498569187,473.0743975757931L552.9181328501973,469.41589123536374L547.1648160037362,463.9816212268522L553.1165230862822,460.72312899089553L550.8350353713062,450.6594114345402L563.0360348905253,450.6594114345402L570.3764736256653,451.8428444698195L573.2531320488958,450.46218440678786L575.3362295277869,442.67400290160754L575.5346197638718,436.26840166700197L570.2772785076229,429.3710803984475L575.2370344097445,423.36033488033144L572.8563515767261,419.4182716530454L565.019937251374,420.7980689377331L565.4167177235437,412.9120349715156L576.030595354084,412.51762290185275L586.1484973944121,414.9825043901809L589.7195216439395,412.2218056834335L592.7945703032549,401.9616225786601L599.242252976013,400.6782637204703Z" class="point" style="stroke: none; fill: rgb(253, 174, 97);"/><path class="point"/><path class="point"/><path d="M816.2811712528542,334.13002363059735L813.6029030657085,338.2488756408435L804.1793668516775,338.5499868604947L803.7825863795078,333.6272487136793L809.0399276357566,325.7699495610085L815.2892200724299,323.6498567458465L817.4715126693634,329.7019422552808Z" class="point" style="stroke: none; fill: rgb(254, 224, 139);"/><path d="M526.1354509787407,97.59036010400729L524.4491339720194,100.66620876861919L523.0604023194253,121.27972424185128L516.7119147647096,128.91022315941706L518.9934024796855,135.7673857926381L523.7547681457222,142.22066425119385L529.8056703463106,147.11732658639426L533.7734750680079,165.07902238716235L536.3525481371112,175.73976616594797L535.9557676649414,183.93987359101362L537.245304199493,187.73646194975447L535.4597920747292,193.18348904787933L536.4517432551536,200.58599614627227L532.7815238875836,204.21328001344665L537.5428895536203,210.88678143929553L538.0388651438325,215.8930126151128L550.9342304893487,221.3098039148882L554.3068645027913,228.20691204030135L543.9905722263784,234.7440976744021L516.7119147647096,252.15312300511047L502.92379335681153,264.5402958747432L489.4332573030408,267.56807169069975L481.79523321377354,269.0275116704031L481.0016722694341,261.71559706796165L469.8918190486817,257.83552837291234L463.64252661200845,252.7856733293211L463.64252661200845,250.0424692518056L435.7686984420851,230.46137867383618L413.6481871186228,214.5891718287753L396.1898463431547,203.11538430884016L381.31057863678996,193.29435642059673L381.31057863678996,189.7407405125122L381.31057863678996,180.1290101339283L390.2381392606088,173.25515485953997L405.8117727932707,171.104265849079L417.4176016042352,162.338076343645L423.46850380482357,160.3917572988969L423.3693086867811,151.29344707081304L430.31296694975134,149.78761339615858L432.991235136897,146.41943345982764L443.6051127674372,147.00104849752034L443.8035030035221,143.85585599167695L440.03408851790965,135.41402596055042L439.04213733748537,120.08123894647741L435.3719179699154,116.71635895578288L462.7497705496266,102.26100823461923L476.04191636731247,101.03451977967029L478.62098943641575,98.9451881508956L494.0954278510351,97.96008632658737L498.46001304490215,100.66620876861919L514.9264026399458,96.23323019600048L520.2829390142372,98.45278880906051Z" class="point" style="stroke: none; fill: rgb(230, 245, 152);"/><path d="M763.0133928640682,241.99106290966873L743.5711497277516,241.99106290966873L715.7965166758706,241.99106290966873L690.9977371652626,241.99106290966873L663.322299231424,241.99106290966873L663.322299231424,215.34992698683195L663.322299231424,189.62949380749055L663.322299231424,175.17563302649685L660.8424212803633,165.87697983361466L663.4214943494665,159.70385887168266L662.3303480509998,153.8361542041378L664.7110308840181,151.17770179557766L682.8637374857832,153.8361542041378L697.2470296019358,159.24497951179364L708.3568828226882,152.565680703034L715.5981264397858,151.8719540093008L722.541784702756,156.83216003160612L735.9331256384844,156.48696091947033L740.4961010684362,154.5284019289092L745.753442324685,169.85683645093036L744.1663204360061,179.1178255460991L740.6944913045211,188.62773378594295L734.8419793400176,189.96319803136365L739.0081742977998,199.59461731261192L751.5067591711461,224.00877127973592L753.093881059825,233.5678374651279Z" class="point" style="stroke: none; fill: rgb(50, 136, 189);"/><path d="M815.2892200724299,323.6498567458465L809.0399276357566,325.7699495610085L796.1445622902405,311.59576710512687L789.9944649716097,308.4437669708081L775.9087582095844,308.95250072724224L771.444977897675,304.8788228240906L768.7667097105293,311.49416906993565L760.0375393227953,310.27458209032295L759.1447832604134,302.9407275315208L763.5093684542803,293.0136986675451L764.0053440444925,285.8142387668141L775.2143923832873,280.65237742897045L777.3966849802209,277.65079909653525L780.1741482854089,282.9256390958998L782.7532213545121,294.2448227686546L784.8363188334033,298.54692060666173L788.4073430829309,299.8764070891326L790.4904405618219,304.0630293694486L798.8228304773861,307.01859349749475L803.1874156712532,313.0175914810244L808.3455618094596,316.1623272092192L812.3133665311569,322.1342449223422Z" class="point" style="stroke: none; fill: rgb(50, 136, 189);"/><path d="M319.01604450614263,181.02698367665252L314.35387395814837,186.509698227728L312.2707764792573,183.1564606249267Z" class="point"/><path d="M809.0399276357566,325.7699495610085L803.7825863795078,333.6272487136793L804.1793668516775,338.5499868604947L813.6029030657085,338.2488756408435L812.9085372394115,344.9653312391285L817.7690980234906,351.76504136047197L822.8280490436548,355.358435397681L847.6268285542628,363.82654591760445L855.959218469827,363.82654591760445L843.2622433603958,376.14359843970817L830.5652682509644,389.80949090544823L822.4312685714849,389.4138992183455L815.2892200724299,391.9847537272919L812.5117567672418,395.0485510469506L804.972927796017,397.6170558829787L798.4260500052164,397.81459273505783L795.5493915819859,395.0485510469506L787.9113674927187,398.604684385235L784.4395383612335,401.9616225786601L773.2304900224387,400.6782637204703L762.715807509941,393.862745165683L754.9785883026311,392.2813175678716L753.986637122207,386.3470878175562L748.034930039661,383.7735266799491L745.0590764983881,375.2509239965528L736.5282963467389,366.6113738521704L730.8741746183202,365.4181452841633L731.965320916787,360.34233869313596L738.6113938256299,359.94391154253555L739.5041498880119,351.4653958528828L741.1904668947332,341.96009910146313L746.8445886231518,335.93914946818535L752.3995152335281,324.76063594933726L756.6649053093527,323.54884886005584L760.0375393227953,310.27458209032295L768.7667097105293,311.49416906993565L771.444977897675,304.8788228240906L775.9087582095844,308.95250072724224L789.9944649716097,308.4437669708081L796.1445622902405,311.59576710512687Z" class="point" style="stroke: none; fill: rgb(254, 224, 139);"/><path class="point"/><path d="M565.4167177235437,412.9120349715156L565.019937251374,420.7980689377331L572.8563515767261,419.4182716530454L575.2370344097445,423.36033488033144L570.2772785076229,429.3710803984475L575.5346197638718,436.26840166700197L575.3362295277869,442.67400290160754L573.2531320488958,450.46218440678786L570.3764736256653,451.8428444698195L563.0360348905253,450.6594114345402L550.8350353713062,450.6594114345402L553.1165230862822,460.72312899089553L547.1648160037362,463.9816212268522L543.0978161639965,458.74896058968994L536.9477188453658,453.61823382806614L531.491987353032,445.9268021627199L527.7225728674196,437.15524918569974L531.6903775891168,434.3962235099323L531.9879629432442,425.8238462783308L536.1541579010262,422.67051847012203L549.0495232465424,422.5719718994878L548.8511330104576,412.81343310819466L549.1487183645849,411.72876109805Z" class="point" style="stroke: none; fill: rgb(253, 174, 97);"/><path d="M452.63186850929856,337.14449178516867L453.22703921755317,341.2583857138345L457.095648821208,344.1642668771035L457.095648821208,357.1535449239088L459.1787463000991,359.64505930023324L459.4763316542263,369.49339203889616L458.3851853557596,373.66347123439084L463.94011196613576,379.8115324101498L447.3745272530496,387.23763412821495L436.56225938642456,391.292713457639L427.93228411673294,388.3258760099169L427.93228411673294,388.1280302797077L430.2137718317089,387.83124805618456L426.74194270022383,375.4493125737949L430.2137718317089,365.31869148995224L432.991235136897,361.93556688683395L431.5033083662605,351.1657196319471L431.0073327760484,338.3492500471594L449.6560149680256,338.3492500471594Z" class="point" style="stroke: none; fill: rgb(50, 136, 189);"/><path d="M358.594896605073,326.27443443435686L364.2490183334917,330.6083656675193L368.0184328191041,327.88802386682306L372.5814082490559,329.5004665950131L378.7315055676867,326.3753177290995L379.9218469841959,332.6213821016878L384.48482241414774,338.4496204521939L387.06389548325103,345.3657744054781L385.67516383065697,350.3664319761012L388.1550417817177,351.76504136047197L385.9727491847843,366.21367529273186L382.89770052546885,367.506035429619L379.22748115789886,370.08939310741334L374.96209108207427,368.59921331212047L375.06128620011674,363.5280398603661L372.87899360318323,359.64505930023324L367.91923770106166,359.64505930023324L364.64579880566134,352.66379480194473L359.58684778549735,346.86691351266506L349.27055550908443,347.96723066631523L347.58423850236306,351.6651629298L342.62448260024144,354.95938051950355L339.84701929505337,349.7668209755865L331.2170440253618,342.4612077163503L328.1419953660464,338.5499868604947L331.0186537892769,333.9289262752662L339.0534583507139,332.21891637810586L339.0534583507139,323.952852370049L344.5091898430477,324.2558060429214L350.4608969255936,327.0813736785317Z" class="point" style="stroke: none; fill: rgb(171, 221, 164);"/><path d="M313.65950813185134,320.61756529552486L315.24663002053023,316.0609602643889L323.97580040826426,316.1623272092192L321.39672733916103,319.80822739187397Z" class="point"/><path class="point"/><path d="M328.1419953660464,338.5499868604947L325.3645320608583,337.044069008407L323.47982481805207,331.0111071076802L320.20638592265186,331.7157378796513L313.8578983679362,326.87966605956865L322.6862638737126,325.9717572089306L326.7532637134524,323.85185849615516L339.0534583507139,323.952852370049L339.0534583507139,332.21891637810586L331.0186537892769,333.9289262752662Z" class="point" style="stroke: none; fill: rgb(171, 221, 164);"/><path class="point"/><path d="M548.8511330104576,412.81343310819466L549.0495232465424,422.5719718994878L536.1541579010262,422.67051847012203L532.880719005626,420.20673821891137L536.1541579010262,415.0810904417888L536.1541579010262,411.334310830415L537.7412797897052,412.81343310819466Z" class="point" style="stroke: none; fill: rgb(254, 224, 139);"/><path class="point"/><path d="M754.9785883026311,392.2813175678716L762.715807509941,393.862745165683L773.2304900224387,400.6782637204703L784.4395383612335,401.9616225786601L787.9113674927187,398.604684385235L795.5493915819859,395.0485510469506L798.4260500052164,397.81459273505783L804.972927796017,397.6170558829787L797.2357085887073,407.3890344646869L797.3349037067497,438.239202818392L801.9970742547439,445.2367621742473L796.7397329984951,448.39149261757115L796.0453671721981,450.8566417813975L790.5896356798643,454.1114514076486L790.1928552076947,458.2554930688421L785.3322944236154,467.9333592556122L782.3564408823424,470.2067236563035L770.4530267172506,461.6116666895605L769.3618804187838,456.4792445804988L748.9276861020429,445.03961336058046L738.0162231173754,439.42174004587514L738.0162231173754,430.06080406303647L747.0429788592367,416.95410271120613L746.646198387067,410.2495033877642L742.5791985473272,404.5277278426002L738.7105889436724,395.64137144620963L742.0832229571151,392.2813175678716L749.3244665742126,389.2160928277596Z" class="point" style="stroke: none; fill: rgb(253, 174, 97);"/><path d="M382.89770052546885,367.506035429619L384.5840175321902,372.07539418730573L382.30252981721424,375.94524276993235L391.6268709132029,381.8919955894738L390.33733437865124,389.9083844572982L390.83330996886343,394.45567592331946L384.8816028863175,392.57786666520417L376.2516276166259,387.83124805618456L366.9272865206373,379.1178336929935L358.8924819592003,374.75491100599623L357.900530778776,372.8695118478859L365.14177439587354,365.7164898991445L367.91923770106166,359.64505930023324L372.87899360318323,359.64505930023324L375.06128620011674,363.5280398603661L374.96209108207427,368.59921331212047L379.22748115789886,370.08939310741334Z" class="point" style="stroke: none; fill: rgb(50, 136, 189);"/><path d="M664.7110308840181,151.17770179557766L662.3303480509998,153.8361542041378L663.4214943494665,159.70385887168266L660.8424212803633,165.87697983361466L663.322299231424,175.17563302649685L663.322299231424,189.62949380749055L663.322299231424,215.34992698683195L663.322299231424,241.99106290966873L663.2231041133816,259.93419550213605L654.8907141978174,259.93419550213605L654.8907141978174,264.4357767359072L630.0919346872093,251.30926020746375L617.6925449319053,244.75108954265332L587.9340095191758,228.85147476665003L579.502424485569,232.9257677542927L573.2531320488958,236.3462921422956L567.0038396122226,231.3191217225774L554.3068645027913,228.20691204030135L550.9342304893487,221.3098039148882L538.0388651438325,215.8930126151128L537.5428895536203,210.88678143929553L532.7815238875836,204.21328001344665L536.4517432551536,200.58599614627227L535.4597920747292,193.18348904787933L537.245304199493,187.73646194975447L535.9557676649414,183.93987359101362L536.3525481371112,175.73976616594797L533.7734750680079,165.07902238716235L540.0227675046812,158.44139904093203L538.7332309701295,153.60528942965465L545.0817185248452,146.41943345982764L549.9422793089243,144.08921105597034L550.4382548991365,136.00287988276284L557.4811082801491,139.52774601574532L565.9126933137559,138.82389886908493L581.2879366103328,143.97254111896763L583.7678145613936,151.06194187114596L588.4299851093879,154.87433124874337L599.5398383301404,156.71710790588838L606.2851063570257,159.70385887168266L612.9311792658686,164.62274675378012L616.006227925184,164.39452692274637L621.8587398896875,159.35972041958678L620.9659838273056,150.59875550963739L626.322520201597,142.22066425119385L635.051690589331,138.5891585679579L647.451080344635,141.4019436037686L647.5502754626774,144.55573907841818L655.8826653782417,147.69849291855144L663.322299231424,148.0470137424013Z" class="point" style="stroke: none; fill: rgb(102, 194, 165);"/><path d="M696.8502491297661,684.1153141056282L700.6196636153786,688.2885553835733L698.2389807823602,693.84282554749L691.6921029915596,696.2330416666559L689.013834804414,700.9170020757879L683.260517957953,697.4874476568453L680.3838595347223,691.0050446582497L686.5339568533532,684.1153141056282L694.1719809426204,681.1932369365535Z" class="point" style="stroke: none; fill: rgb(213, 62, 79);"/><path d="M408.7876263345436,108.1224399063372L409.28360192475577,108.9737206659658L414.0449675907925,115.14947875912071L417.4176016042352,116.11406124422598L429.321015769327,114.30455067673694L429.6186011234543,114.78747190827517L435.3719179699154,116.71635895578288L439.04213733748537,120.08123894647741L440.03408851790965,135.41402596055042L443.8035030035221,143.85585599167695L443.6051127674372,147.00104849752034L432.991235136897,146.41943345982764L430.31296694975134,149.78761339615858L423.3693086867811,151.29344707081304L423.46850380482357,160.3917572988969L417.4176016042352,162.338076343645L405.8117727932707,171.104265849079L390.2381392606088,173.25515485953997L381.31057863678996,180.1290101339283L381.31057863678996,189.7407405125122L380.71540792853534,194.1808735258426L372.4822131310135,197.27782138836653L362.5627013267703,195.84108144829938L355.8174332998849,204.32300873666637L353.2383602307817,204.9811495650527L349.865726217339,216.1101745339848L344.6083849610901,220.1202835707401L342.525287482199,224.00877127973592L336.8711657537804,228.20691204030135L334.8872633929318,239.22507864242738L329.72911725472534,246.97606358987673L311.47721553491783,247.18776869551732L313.16353254163914,240.82157192461042L323.1822394639248,223.57735251825653L329.1339465464707,217.5207237646545L330.2250928449375,210.450403236201L333.30014150425285,202.89567205347166L339.9462144130958,198.8229105093007L345.40194590542956,187.29053592785544L357.80133566073357,183.38035479172837L365.4393597500008,177.09237162664226L373.17657895731054,166.1048452829944L371.4902619505892,153.60528942965465L375.5572617903289,147.46607117318268L376.45001785271074,142.1037502020207L384.98079800435994,133.7631231249082L396.88421216945176,127.36578519315708L401.3479924813612,118.88104512353692L404.4230411406766,109.58123745979844Z" class="point" style="stroke: none; fill: rgb(230, 245, 152);"/><path d="M867.4658521627491,532.9973507316392L872.4256080648707,541.1742566710886L875.3022664881012,557.115409745591L877.087778612865,560.8915099734181L874.9054860159315,566.4167600905539L869.8465349957675,562.8336290435002L871.6320471205312,571.6511424811664L868.160217989046,578.0365481946158L867.5650472807915,588.0779208245715L860.8197792539062,607.2079326921819L855.3640477615725,624.3683810439434L852.5865844563843,636.8007535226839L848.9163650888142,646.536689148531L835.1282436809163,652.7458631345226L825.7047074668853,649.8004046573767L822.9272441616972,647.4060948191424L819.7530003843393,639.9290185761647L819.1578296760847,629.7116566633952L816.0827810167693,622.3439157700948L818.2650736137028,614.5953853118497L826.6966586473095,601.2218843422834L826.4982684112247,596.8273660212001L823.0264392797396,588.0779208245715L822.1336832173577,579.5851641147374L829.8709024246674,568.7753872512459L842.171097061929,563.54967616044L854.0745112270207,554.6701349418674L855.6616331156997,549.4842567352712L862.7044864967124,544.1093295033317L864.1924132673489,539.2534774504566L862.60529137867,536.1232166638881Z" class="point" style="stroke: none; fill: rgb(240, 240, 240);"/><path d="M489.4332573030408,267.56807169069975L489.0364768308711,291.5762692026006L486.45740376176786,297.6259265740881L483.38235510245244,300.7962455836769L465.2296485006874,301.40921186568835L462.15459984137203,303.9610300338688L455.9053074046988,304.6749079300384L447.6721126071769,303.2468774388574L437.0582349766367,310.7828356693664L430.2137718317089,312.10367876194834L426.84113781826625,318.5936372666275L420.69104049963545,317.68223102109425L417.1200162501079,327.0813736785317L410.77152869539225,330.2055545600062L407.7956751541193,343.1625996514854L403.62948019633717,345.16556021023814L401.4471875994036,340.6567662346006L395.59467563490017,345.3657744054781L389.44457831626937,343.3629632240463L387.06389548325103,345.3657744054781L384.48482241414774,338.4496204521939L379.9218469841959,332.6213821016878L378.7315055676867,326.3753177290995L372.5814082490559,329.5004665950131L368.0184328191041,327.88802386682306L364.2490183334917,330.6083656675193L358.594896605073,326.27443443435686L358.0989210148609,320.5164149647841L353.535945584909,316.46639791132804L353.535945584909,311.08772442234726L351.25445786993305,305.79616509839747L353.73433582099386,305.79616509839747L355.8174332998849,299.1606523263308L371.58945706863165,300.69406440885246L375.6564569083713,299.5696899695621L407.8948702721617,299.5696899695621L409.1844068067133,292.5004698628273L406.90291909173743,290.5487894200537L403.33189484220986,256.57480534942954L401.4471875994036,239.22507864242738L398.768919412258,214.5891718287753L413.6481871186228,214.5891718287753L435.7686984420851,230.46137867383618L463.64252661200845,250.0424692518056L463.64252661200845,252.7856733293211L469.8918190486817,257.83552837291234L481.0016722694341,261.71559706796165L481.79523321377354,269.0275116704031Z" class="point" style="stroke: none; fill: rgb(102, 194, 165);"/><path d="M729.5846380837686,664.6072697821861L723.0377602929682,664.4968416017598L721.6490286403741,656.2469184628303L722.0458091125438,642.0913134591443L718.0780043908466,632.8214339046364L716.1932971480403,623.622147118554L725.517638244029,613.6432748150512L726.0136138342411,608.1554802566609L730.7749795002778,600.174339462497L728.5926869033443,596.4095421854348L730.4773941461506,588.4933994545248L730.6757843822354,578.7590500029L729.6838332018111,572.9879793586707L721.3514432862469,570.5208012155754L715.895711793913,567.0317449236081L708.7536632948579,566.8267258551517L708.6544681768155,563.651992062389L707.166541406179,557.9312100269633L732.1637111528719,549.5858085696258L735.5363451663145,553.9575236130797L741.7856376029878,552.83824088589L743.670344845794,560.4829082091602L740.7936864225635,565.8019917713796L742.0832229571151,568.4675576369349L749.0268812200853,571.0344990476397L753.8874420041645,566.8267258551517L754.3834175943766,555.2811569579667L746.3486130329397,545.4263949051726L743.4719546097091,543.6029889851006L741.7856376029878,534.005222876974L744.364710672091,528.5679126339597L746.9437837411942,528.5679126339597L757.2600760176072,529.6744898309331L762.5174172738562,528.5679126339597L767.5763682940201,529.8757411002349L771.3457827796325,526.4567709463104L776.503928917839,527.2607983533121L789.2009040272703,522.139593455721L792.7719282767978,519.232137778468L794.1606599293918,522.139593455721L792.3751478046281,526.5572598702382L793.6646843391798,532.1913721230727L794.2598550474343,550.7032232205397L796.1445622902405,553.4486779567748L793.962269693307,562.526839396271L787.4153919025065,570.8290012250573L781.5628799380031,575.3557836085979L771.6433681337599,578.6558156176939L766.4852219955534,581.5489007038539L757.6568564897768,592.1337371844231L752.7962957056977,594.3222245258995L746.2494179148972,600.8027732226124L744.5631009081759,605.1046175440492L751.4075640531037,621.2797073793633L751.1099786989764,639.7130090361441L748.1341251577035,643.7156797980058L736.6274914647813,648.3849724526506L729.3862478476838,652.4182060348321L727.7991259590049,658.4407569782068Z" class="point" style="stroke: none; fill: rgb(213, 62, 79);"/><path d="M351.25445786993305,305.79616509839747L333.89531221250746,289.62352241267735L317.3297274994213,290.8570988676358L315.4450202566151,296.80686322009433L316.1393860829121,289.52068349908586L319.8096054504821,277.9615744933968L318.3216786798456,268.92331393903964L316.0401909648697,266.42034786564284L318.3216786798456,258.045537370969L316.7345567911667,254.89204457727186L311.17963018079047,253.10183746681207L311.97319112513003,248.03424860316366L345.00516543325983,248.03424860316366L345.00516543325983,232.7116699744822L353.33755534882414,228.42180460921966L353.33755534882414,205.31007145826973L381.31057863678996,205.20044181054817L381.31057863678996,193.29435642059673L396.1898463431547,203.11538430884016L413.6481871186228,214.5891718287753L398.768919412258,214.5891718287753L401.4471875994036,239.22507864242738L403.33189484220986,256.57480534942954L406.90291909173743,290.5487894200537L409.1844068067133,292.5004698628273L407.8948702721617,299.5696899695621L375.6564569083713,299.5696899695621L371.58945706863165,300.69406440885246L355.8174332998849,299.1606523263308L353.73433582099386,305.79616509839747Z" class="point" style="stroke: none; fill: rgb(230, 245, 152);"/><path d="M746.9437837411942,528.5679126339597L744.364710672091,528.5679126339597L741.7856376029878,534.005222876974L743.4719546097091,543.6029889851006L746.3486130329397,545.4263949051726L754.3834175943766,555.2811569579667L753.8874420041645,566.8267258551517L749.0268812200853,571.0344990476397L742.0832229571151,568.4675576369349L740.7936864225635,565.8019917713796L743.670344845794,560.4829082091602L741.7856376029878,552.83824088589L735.5363451663145,553.9575236130797L732.1637111528719,549.5858085696258L728.1959064311745,545.7304528595802L730.4773941461506,542.6918856966453L732.659686743084,532.8965879528783L732.8580769791689,522.9422277119133L736.1315158745692,520.134104218614L731.965320916787,511.8273481698377L729.7830283198534,510.12899839221296L733.8500281595932,511.8273481698377L739.0081742977998,510.7283027849568L742.8767839014545,514.7268602035011L743.8687350818789,523.8454950834728Z" class="point" style="stroke: none; fill: rgb(244, 109, 67);"/><path class="point"/><path d="M649.9309582956957,581.1352806211934L656.9738116767085,579.7917592309229L663.1239089953392,580.4117050586713L665.6037869464001,582.479942363979L655.5850800241144,585.3800643198863L652.1132508926293,588.3895191250358L648.8398119972289,584.3436857762645L629.7943493330821,587.1435088640659L629.6951542150396,620.0038296469374L621.3627642994753,620.0038296469374L621.4619594175178,645.1253167471594L621.4619594175178,679.5112936941837L613.9231304462929,684.678236521923L599.8374236842676,682.2037576548055L599.3414480940554,677.6084754710122L595.572033608443,676.2674554711284L592.1993995950004,680.9688151221238L585.4541315681149,675.03973466279L582.1806926727147,669.0338810295207L578.4112781871023,654.4950033279504L577.8161074788477,645.5593996724045L575.137839291702,638.0942021400092L575.5346197638718,625.0083633566184L566.2102786678831,609.3144921935252L564.2263763070346,603.4242708934755L556.985132689937,590.4684853098047L553.3149133223669,585.5874234236105L552.62054749607,577.727003534586L559.1674252868705,577.62383513946L566.0118884317983,575.252765025539L570.8724492158775,579.1720538715933L593.0921556573822,578.9655386612667L608.5665940720016,578.9655386612667L611.2448622591473,582.0660781397992L628.3064225624455,584.6545265356073L633.1669833465247,584.4472924449019Z" class="point" style="stroke: none; fill: rgb(244, 109, 67);"/><path d="M579.502424485569,232.9257677542927L581.1887414922904,246.44665134005547L587.6364241650485,256.57480534942954L585.8509120402847,260.77278246299994L583.4702292072664,287.5655389565216L574.4434734654051,297.31882230357314L566.7062542580953,309.25767654058757L567.995790792647,315.04701337775737L554.9020352110459,320.0105908988337L549.8430841908819,317.9860775163826L543.4945966361663,317.8848002971939L537.245304199493,319.90941157012196L534.7654262484323,322.63956672441725L526.7306216869953,321.83099492944416L518.9934024796855,318.28987955549826L511.85135398063045,321.1232447966564L507.387573668721,315.75682923073543L500.5431105237932,313.62663359641897L491.81394013605916,315.14843083755653L488.63969635870137,317.07440414880296L488.24291588653165,321.1232447966564L484.57269651896166,325.1644166178844L484.1759160467919,332.31953921812044L477.82742849207625,326.27443443435686L474.05801400646385,330.6083656675193L471.3797458193182,327.0813736785317L462.15459984137203,320.5164149647841L455.3101366964442,307.8331085036929L455.9053074046988,304.6749079300384L462.15459984137203,303.9610300338688L465.2296485006874,301.40921186568835L483.38235510245244,300.7962455836769L486.45740376176786,297.6259265740881L489.0364768308711,291.5762692026006L489.4332573030408,267.56807169069975L502.92379335681153,264.5402958747432L516.7119147647096,252.15312300511047L543.9905722263784,234.7440976744021L554.3068645027913,228.20691204030135L567.0038396122226,231.3191217225774L573.2531320488958,236.3462921422956Z" class="point" style="stroke: none; fill: rgb(102, 194, 165);"/><path d="M567.995790792647,315.04701337775737L571.8644003963018,320.4152598128579L573.1539369308534,326.67794033739233L576.9233514164658,328.2912413091835L576.3281807082112,334.029477051779L571.1700345700048,335.93914946818535L565.019937251374,346.0664082473463L564.6231567792042,350.6661906859716L561.7464983559737,352.0646562746231L561.2505227657615,357.05384371881587L556.6875473358097,360.2427364465329L556.1915717455976,363.9260421965653L550.4382548991365,375.4493125737949L542.8994259279117,371.67827531508823L538.8324260881719,372.27393856122404L528.2185484576316,381.8919955894738L526.0362558606982,390.60059085063756L523.5563779096374,392.77555792898954L514.1328416956063,392.380168899495L512.446524688885,394.25803856392923L505.2052810717875,395.14735822257114L500.9398909959629,392.08360998599005L495.98013509384134,381.8919955894738L490.9211840736773,377.63097109980833L483.67994045657974,376.83777007532944L476.6370870755671,377.53182895105425L476.4386968394822,364.7219097334855L477.2322577838217,354.75983355268505L483.4815502204949,348.0672379978563L486.15981840764056,341.65938791145913L483.1839648663676,334.9342456943823L484.1759160467919,332.31953921812044L484.57269651896166,325.1644166178844L488.24291588653165,321.1232447966564L488.63969635870137,317.07440414880296L491.81394013605916,315.14843083755653L500.5431105237932,313.62663359641897L507.387573668721,315.75682923073543L511.85135398063045,321.1232447966564L518.9934024796855,318.28987955549826L526.7306216869953,321.83099492944416L534.7654262484323,322.63956672441725L537.245304199493,319.90941157012196L543.4945966361663,317.8848002971939L549.8430841908819,317.9860775163826L554.9020352110459,320.0105908988337Z" class="point" style="stroke: none; fill: rgb(50, 136, 189);"/><path class="point"/><path d="M709.3488340031125,439.9144785828841L712.3246875443855,444.3496109543538L712.3246875443855,450.6594114345402L710.0431998294096,451.15249359797247L702.801956212312,454.50604301095575L697.1478344838933,453.8155179658561L695.7591028312993,451.2511125658542L701.8100050318877,442.5754423546589L706.472175579882,442.3783227218023Z" class="point" style="stroke: none; fill: rgb(253, 174, 97);"/><path d="M381.31057863678996,189.7407405125122L381.31057863678996,193.29435642059673L381.31057863678996,205.20044181054817L353.33755534882414,205.31007145826973L353.33755534882414,228.42180460921966L345.00516543325983,232.7116699744822L345.00516543325983,248.03424860316366L311.97319112513003,248.03424860316366L311.17963018079047,253.10183746681207L311.47721553491783,247.18776869551732L329.72911725472534,246.97606358987673L334.8872633929318,239.22507864242738L336.8711657537804,228.20691204030135L342.525287482199,224.00877127973592L344.6083849610901,220.1202835707401L349.865726217339,216.1101745339848L353.2383602307817,204.9811495650527L355.8174332998849,204.32300873666637L362.5627013267703,195.84108144829938L372.4822131310135,197.27782138836653L380.71540792853534,194.1808735258426Z" class="point" style="stroke: none; fill: rgb(230, 245, 152);"/><path d="M763.0133928640682,241.99106290966873L765.2948805790442,249.40862253531444L765.9892464053412,262.9717087880988L767.6755634120625,270.06908537658194L777.3966849802209,277.65079909653525L775.2143923832873,280.65237742897045L764.0053440444925,285.8142387668141L763.5093684542803,293.0136986675451L759.1447832604134,302.9407275315208L760.0375393227953,310.27458209032295L756.6649053093527,323.54884886005584L752.3995152335281,324.76063594933726L746.8445886231518,335.93914946818535L741.1904668947332,341.96009910146313L739.5041498880119,351.4653958528828L738.0162231173754,345.16556021023814L732.0645160348295,339.55343212309543L731.1717599724475,333.22495291874236L732.2629062709143,327.88802386682306L725.0216626538167,332.21891637810586L725.6168333620714,337.8473379117729L715.6973215578282,348.56722128395256L711.6303217180885,349.06711602668776L705.4802243994577,344.46469393107054L695.659907713257,352.56394680494384L689.013834804414,352.4640954441686L687.7242982698624,350.2665054890723L676.5152499310675,350.8660125776962L670.5635428485216,343.2627833274878L664.215055293806,344.2644129613458L661.7351773427451,348.4672317280594L659.7512749818966,356.25611976935176L656.4778360864963,357.95104115390325L650.7245192400353,357.1535449239088L651.9148606565444,347.5671656101388L645.5663731018287,338.9514126172926L643.2848853868529,329.80267348936485L640.0114464914526,323.3468190437545L638.9203001929858,314.5398498164503L645.9631535739984,302.838666258374L647.5502754626774,297.7282828309966L654.9899093158598,297.6259265740881L654.8907141978174,264.4357767359072L654.8907141978174,259.93419550213605L663.2231041133816,259.93419550213605L663.322299231424,241.99106290966873L690.9977371652626,241.99106290966873L715.7965166758706,241.99106290966873L743.5711497277516,241.99106290966873Z" class="point" style="stroke: none; fill: rgb(50, 136, 189);"/><path d="M739.5041498880119,351.4653958528828L738.6113938256299,359.94391154253555L731.965320916787,360.34233869313596L730.8741746183202,365.4181452841633L736.5282963467389,366.6113738521704L745.0590764983881,375.2509239965528L748.034930039661,383.7735266799491L753.986637122207,386.3470878175562L754.9785883026311,392.2813175678716L749.3244665742126,389.2160928277596L742.0832229571151,392.2813175678716L738.7105889436724,395.64137144620963L734.94117445806,399.3946884351894L730.6757843822354,398.50592776369314L721.6490286403741,400.8757174011488L714.9037606134887,399.29594264610387L712.423882662428,401.7641964723409L707.0673462881366,397.91335905546333L703.694712274694,392.77555792898954L699.5285173169118,394.15921755562044L694.96554188696,392.77555792898954L691.9896883456869,395.14735822257114L686.732347089438,392.47901859719934L683.9548837842499,388.42479616208425L681.2766155971043,382.58527720264476L676.4160548130251,380.4060465125214L675.027323160431,375.151726155309L666.4965430087819,369.39404938363333L662.0327626968724,362.33375523304727L656.1802507323689,360.84030471278453L656.4778360864963,357.95104115390325L659.7512749818966,356.25611976935176L661.7351773427451,348.4672317280594L664.215055293806,344.2644129613458L670.5635428485216,343.2627833274878L676.5152499310675,350.8660125776962L687.7242982698624,350.2665054890723L689.013834804414,352.4640954441686L695.659907713257,352.56394680494384L705.4802243994577,344.46469393107054L711.6303217180885,349.06711602668776L715.6973215578282,348.56722128395256L725.6168333620714,337.8473379117729L725.0216626538167,332.21891637810586L732.2629062709143,327.88802386682306L731.1717599724475,333.22495291874236L732.0645160348295,339.55343212309543L738.0162231173754,345.16556021023814Z" class="point" style="stroke: none; fill: rgb(254, 224, 139);"/><path d="M409.28360192475577,108.9737206659658L408.7876263345436,108.1224399063372L409.28360192475577,108.9737206659658Z" class="point"/><path d="M429.6186011234543,114.78747190827517L429.321015769327,114.30455067673694L429.6186011234543,114.78747190827517Z" class="point"/><path d="M351.25445786993305,305.79616509839747L353.535945584909,311.08772442234726L353.535945584909,316.46639791132804L358.0989210148609,320.5164149647841L358.594896605073,326.27443443435686L350.4608969255936,327.0813736785317L344.5091898430477,324.2558060429214L339.0534583507139,323.952852370049L326.7532637134524,323.85185849615516L322.6862638737126,325.9717572089306L313.8578983679362,326.87966605956865L313.65950813185134,320.61756529552486L321.39672733916103,319.80822739187397L323.97580040826426,316.1623272092192L315.24663002053023,316.0609602643889L310.08848388232377,306.9167546063394L315.4450202566151,296.80686322009433L317.3297274994213,290.8570988676358L333.89531221250746,289.62352241267735Z" class="point" style="stroke: none; fill: rgb(171, 221, 164);"/><path d="M367.91923770106166,359.64505930023324L365.14177439587354,365.7164898991445L357.900530778776,372.8695118478859L349.27055550908443,368.89729665996134L346.195506849769,365.2192348938855L342.62448260024144,354.95938051950355L347.58423850236306,351.6651629298L349.27055550908443,347.96723066631523L359.58684778549735,346.86691351266506L364.64579880566134,352.66379480194473Z" class="point" style="stroke: none; fill: rgb(171, 221, 164);"/><path d="M863.994023031264,336.1400807482234L863.994023031264,351.4653958528828L855.959218469827,363.82654591760445L847.6268285542628,363.82654591760445L822.8280490436548,355.358435397681L817.7690980234906,351.76504136047197L812.9085372394115,344.9653312391285L813.6029030657085,338.2488756408435L816.2811712528542,334.13002363059735L824.9111465225458,342.8620259017414L830.6644633690069,343.2627833274878L837.7073167500196,339.352774789967L843.1630482423534,340.8573216003143L850.8010723316206,336.7427762969611Z" class="point" style="stroke: none; fill: rgb(254, 224, 139);"/><path d="M864.0932181493065,380.6042006563064L843.2622433603958,376.14359843970817L855.959218469827,363.82654591760445L863.994023031264,351.4653958528828L863.994023031264,336.1400807482234L875.2030713700588,333.22495291874236L879.5676565639258,329.80267348936485L882.3451198691139,333.9289262752662L882.4443149871563,341.05786141465654L880.6588028623926,343.9639634873649L879.9644370360955,351.3655071977547L875.3022664881012,359.64505930023324L871.6320471205312,364.02553561272964Z" class="point" style="stroke: none; fill: rgb(254, 224, 139);"/><path d="M864.0932181493065,380.6042006563064L855.7608282337421,393.5662586397361L839.5920239928257,410.5453702296133L827.2918293555642,417.9398110289649L818.1658784956604,425.8238462783308L806.5600496846959,438.239202818392L801.9970742547439,445.2367621742473L797.3349037067497,438.239202818392L797.2357085887073,407.3890344646869L804.972927796017,397.6170558829787L812.5117567672418,395.0485510469506L815.2892200724299,391.9847537272919L822.4312685714849,389.4138992183455L830.5652682509644,389.80949090544823L843.2622433603958,376.14359843970817Z" class="point" style="stroke: none; fill: rgb(253, 174, 97);"/><path class="point"/><path class="point"/><path d="M721.6490286403741,656.2469184628303L723.0377602929682,664.4968416017598L721.847418876459,669.0338810295207L715.0029557315311,668.036269502009L711.9279070722157,663.3931893204008L714.7053703774038,655.808678012578Z" class="point" style="stroke: none; fill: rgb(213, 62, 79);"/><path d="M654.8907141978174,264.4357767359072L654.9899093158598,297.6259265740881L647.5502754626774,297.7282828309966L645.9631535739984,302.838666258374L638.9203001929858,314.5398498164503L640.0114464914526,323.3468190437545L643.2848853868529,329.80267348936485L645.5663731018287,338.9514126172926L642.1937390883861,338.2488756408435L636.0436417697553,341.358642056548L635.4484710615006,344.76508745621425L624.6362031948756,354.2609088962921L614.0223255643355,355.1589144560594L614.2207158004203,358.05071407229025L609.7569354885109,363.32902142832137L602.1189113992435,363.82654591760445L594.4808873099763,367.506035429619L591.2074484145761,366.5119533412249L583.7678145613936,367.8042070853708L581.1887414922904,359.64505930023324L570.8724492158775,349.8667648369048L572.9555466947686,346.96696034398894L584.1645950335634,346.0664082473463L580.1967903118662,340.05500646695236L580.7919610201207,333.72781211080576L578.3120830690599,324.45775191433523L574.8402539375747,320.4152598128579L571.8644003963018,320.4152598128579L567.995790792647,315.04701337775737L566.7062542580953,309.25767654058757L574.4434734654051,297.31882230357314L583.4702292072664,287.5655389565216L585.8509120402847,260.77278246299994L587.6364241650485,256.57480534942954L581.1887414922904,246.44665134005547L579.502424485569,232.9257677542927L587.9340095191758,228.85147476665003L617.6925449319053,244.75108954265332L630.0919346872093,251.30926020746375Z" class="point" style="stroke: none; fill: rgb(50, 136, 189);"/><path d="M461.5594291331174,338.3492500471594L460.46828283465067,343.6634802821167L465.130453382645,346.7668630636054L467.4119410976209,354.8596086670857L467.61033133370574,378.820501286384L463.94011196613576,379.8115324101498L458.3851853557596,373.66347123439084L459.4763316542263,369.49339203889616L459.1787463000991,359.64505930023324L457.095648821208,357.1535449239088L457.095648821208,344.1642668771035L453.22703921755317,341.2583857138345L452.63186850929856,337.14449178516867Z" class="point" style="stroke: none; fill: rgb(50, 136, 189);"/><path d="M550.4382548991365,136.00287988276284L549.9422793089243,144.08921105597034L545.0817185248452,146.41943345982764L538.7332309701295,153.60528942965465L540.0227675046812,158.44139904093203L533.7734750680079,165.07902238716235L529.8056703463106,147.11732658639426L523.7547681457222,142.22066425119385L518.9934024796855,135.7673857926381L516.7119147647096,128.91022315941706L523.0604023194253,121.27972424185128L524.4491339720194,100.66620876861919L526.1354509787407,97.59036010400729L534.9638164845171,93.38809144924323L542.3042552196571,99.31428914500862L542.8994259279117,108.85216328086415L547.1648160037362,115.51132813834477L542.8002308098692,122.23728898843245L538.8324260881719,124.5071776764662L540.6179382129357,130.80727510197198L547.0656208856938,132.34557154050685Z" class="point" style="stroke: none; fill: rgb(230, 245, 152);"/><path d="M738.0162231173754,439.42174004587514L748.9276861020429,445.03961336058046L769.3618804187838,456.4792445804988L770.4530267172506,461.6116666895605L782.3564408823424,470.2067236563035L778.8846117508574,481.5877468555374L779.4797824591119,484.2636914890353L784.6379285973184,488.52882184745977L783.0508067086396,494.78600341738405L783.0508067086396,500.85482112205113L786.1258553679548,508.3318148117895L787.4153919025065,514.5267978891807L792.7719282767978,519.232137778468L789.2009040272703,522.139593455721L776.503928917839,527.2607983533121L771.3457827796325,526.4567709463104L767.5763682940201,529.8757411002349L762.5174172738562,528.5679126339597L757.2600760176072,529.6744898309331L746.9437837411942,528.5679126339597L743.8687350818789,523.8454950834728L742.8767839014545,514.7268602035011L739.0081742977998,510.7283027849568L733.8500281595932,511.8273481698377L729.7830283198534,510.12899839221296L713.4158338428522,502.8469675388485L711.6303217180885,499.85919796044544L708.4560779407307,492.40110097208384L703.1987366844818,486.8420855316751L701.0164440875483,481.3895920564262L701.9092001499301,478.1212479235237L699.7269075529966,472.2831697699681L700.3220782612511,468.32866614615443L705.3810292814153,466.8463934336262L712.3246875443855,457.5646867813314L708.8528584129003,454.90065049461634L710.0431998294096,451.15249359797247L712.3246875443855,450.6594114345402L712.3246875443855,444.3496109543538L709.3488340031125,439.9144785828841L712.3246875443855,439.42174004587514Z" class="point" style="stroke: none; fill: rgb(244, 109, 67);"/><path class="point"/><path d="M738.0162231173754,439.42174004587514L712.3246875443855,439.42174004587514L709.3488340031125,439.9144785828841L706.472175579882,442.3783227218023L701.8100050318877,442.5754423546589L702.9011513303544,430.1593358254031L704.7858585731606,424.4443008141885L715.7965166758706,413.7994179310201L711.4319314820036,410.5453702296133L712.423882662428,401.7641964723409L714.9037606134887,399.29594264610387L721.6490286403741,400.8757174011488L730.6757843822354,398.50592776369314L734.94117445806,399.3946884351894L738.7105889436724,395.64137144620963L742.5791985473272,404.5277278426002L746.646198387067,410.2495033877642L747.0429788592367,416.95410271120613L738.0162231173754,430.06080406303647Z" class="point" style="stroke: none; fill: rgb(253, 174, 97);"/><path d="M716.1932971480403,623.622147118554L718.0780043908466,632.8214339046364L722.0458091125438,642.0913134591443L721.6490286403741,656.2469184628303L714.7053703774038,655.808678012578L711.9279070722157,663.3931893204008L715.0029557315311,668.036269502009L721.847418876459,669.0338810295207L723.0377602929682,664.4968416017598L729.5846380837686,664.6072697821861L725.3192480079441,680.7444434842951L715.3005410856584,690.4384846093699L708.6544681768155,702.8659664840317L695.8582979493417,717.0909893143344L687.7242982698624,724.5820966835115L676.1184694588978,731.6633598096064L671.4562989109036,731.3079237758221L668.4804453696305,734.6310399694506L662.2311529329573,736.0591784647352L652.0140557745868,734.0366841197537L643.5824707409802,734.1555223634286L635.8452515336704,738.0864723488028L625.9257397294273,738.8031426549869L621.1643740633905,742.3956251710424L611.641642731317,737.8477165276586L603.60683816988,722.4688270999626L607.0786673013652,720.594591698148L606.2851063570257,710.9344028438475L598.8454725038433,698.0581789025642L594.877667782146,685.8050419151998L592.1993995950004,680.9688151221238L595.572033608443,676.2674554711284L599.3414480940554,677.6084754710122L599.8374236842676,682.2037576548055L613.9231304462929,684.678236521923L621.4619594175178,679.5112936941837L621.4619594175178,645.1253167471594L624.6362031948756,647.7322934696871L628.2072274444032,655.6991452191563L626.8184957918091,664.0552434792497L635.746056415628,664.7177094365996L644.3760316853195,656.5757137313312L646.756714518338,650.2362803384647L650.5261290039504,650.0183213681154L654.4939337256476,653.2921730261874L661.7351773427451,655.1516448273425L668.3812502515882,653.1828895439621L670.8611282026488,646.3194414004644L678.9951278821284,640.469216824807L680.28466441668,634.97077495601L691.791298109602,625.2217634938534L699.9252977890815,621.70528377767ZM696.8502491297661,684.1153141056282L694.1719809426204,681.1932369365535L686.5339568533532,684.1153141056282L680.3838595347223,691.0050446582497L683.260517957953,697.4874476568453L689.013834804414,700.9170020757879L691.6921029915596,696.2330416666559L698.2389807823602,693.84282554749L700.6196636153786,688.2885553835733Z" class="point" style="stroke: none; fill: rgb(213, 62, 79);"/><path d="M729.7830283198534,510.12899839221296L731.965320916787,511.8273481698377L736.1315158745692,520.134104218614L732.8580769791689,522.9422277119133L732.659686743084,532.8965879528783L730.4773941461506,542.6918856966453L728.1959064311745,545.7304528595802L732.1637111528719,549.5858085696258L707.166541406179,557.9312100269633L708.6544681768155,563.651992062389L698.5365661364874,565.1874388817677L694.767151650875,571.6511424811664L687.5259080337775,574.9437479656007L680.5822497708073,583.8257559887422L665.6037869464001,582.479942363979L663.1239089953392,580.4117050586713L656.9738116767085,579.7917592309229L649.9309582956957,581.1352806211934L639.6146660192828,572.0623634824601L638.2259343666888,568.2623684776522L638.1267392486463,540.87086118521L655.0891044339022,540.87086118521L654.7915190797748,522.641210214519L664.5126406479333,525.9543881805241L666.3973478907394,529.2720385737309L671.7538842650308,531.4863714967172L683.756493548165,531.5870727563276L685.5420056729289,534.8118425964683L692.1880785817718,536.7287262817366L698.437371018445,544.6157936478713L701.8100050318877,542.793099817593L703.694712274694,533.6020205745348L697.2470296019358,535.517871678751L692.3864688178567,530.3789443543294L694.2711760606629,513.5267010964042L691.6921029915596,508.7310951910601L696.2550784215115,502.24919612940346L711.6303217180885,499.85919796044544L713.4158338428522,502.8469675388485Z" class="point" style="stroke: none; fill: rgb(244, 109, 67);"/><path d="M708.6544681768155,563.651992062389L708.7536632948579,566.8267258551517L715.895711793913,567.0317449236081L721.3514432862469,570.5208012155754L729.6838332018111,572.9879793586707L730.6757843822354,578.7590500029L730.4773941461506,588.4933994545248L728.5926869033443,596.4095421854348L730.7749795002778,600.174339462497L726.0136138342411,608.1554802566609L725.517638244029,613.6432748150512L716.1932971480403,623.622147118554L699.9252977890815,621.70528377767L697.3462247199783,618.1985063771294L688.5178592142017,615.9718746117959L685.8395910270561,611.8467104264271L686.0379812631411,606.5765995588969L672.94422568154,597.5588489100304L671.3571037928612,592.4461796363485L665.6037869464001,582.479942363979L680.5822497708073,583.8257559887422L687.5259080337775,574.9437479656007L694.767151650875,571.6511424811664L698.5365661364874,565.1874388817677Z" class="point" style="stroke: none; fill: rgb(213, 62, 79);"/></g><g transform="translate(25,25)" class="background"><path class="background" d="M700.3220782612511,468.32866614615443L699.7269075529966,472.2831697699681L701.9092001499301,478.1212479235237L701.0164440875483,481.3895920564262L703.1987366844818,486.8420855316751L708.4560779407307,492.40110097208384L711.6303217180885,499.85919796044544L696.2550784215115,502.24919612940346L691.6921029915596,508.7310951910601L694.2711760606629,513.5267010964042L692.3864688178567,530.3789443543294L697.2470296019358,535.517871678751L703.694712274694,533.6020205745348L701.8100050318877,542.793099817593L698.437371018445,544.6157936478713L692.1880785817718,536.7287262817366L685.5420056729289,534.8118425964683L683.756493548165,531.5870727563276L671.7538842650308,531.4863714967172L666.3973478907394,529.2720385737309L664.5126406479333,525.9543881805241L654.7915190797748,522.641210214519L655.0891044339022,540.87086118521L638.1267392486463,540.87086118521L638.2259343666888,568.2623684776522L639.6146660192828,572.0623634824601L649.9309582956957,581.1352806211934L633.1669833465247,584.4472924449019L628.3064225624455,584.6545265356073L611.2448622591473,582.0660781397992L608.5665940720016,578.9655386612667L593.0921556573822,578.9655386612667L570.8724492158775,579.1720538715933L566.0118884317983,575.252765025539L559.1674252868705,577.62383513946L552.62054749607,577.727003534586L552.3229621419428,565.9044381682613L556.8859375718946,555.9942651459895L558.8698399327432,544.5144909003484L568.2933761467743,534.4084967851445L569.9796931534956,524.6486720641246L569.2853273271985,520.7355879244512L564.6231567792042,512.7268792522511L562.9368397724829,507.5334129246956L566.1110835498407,504.64094940347377L566.0118884317983,500.95439978747015L561.349717883804,489.3228236102419L556.8859375718946,482.5786504093661L564.5239616611618,480.10179292721654L590.7114728243639,480.10179292721654L593.0921556573822,480.6961174261675L596.3655945527825,492.30176315240817L600.9285699827344,498.3663134786133L616.2046181612689,498.2668110216172L617.5933498138629,489.81915524683967L624.041032486621,489.81915524683967L625.9257397294273,492.20242794447853L636.5396173599675,492.20242794447853L637.8291538945191,501.7511371216448L637.134788068222,511.92728212415886L641.0033976718769,518.330479355581L639.7138611373252,522.4405516731658L646.8559096363804,524.548260823103L654.7915190797748,522.641210214519M701.8100050318877,442.5754423546589L706.472175579882,442.3783227218023L709.3488340031125,439.9144785828841L712.3246875443855,444.3496109543538L712.3246875443855,450.6594114345402L710.0431998294096,451.15249359797247L708.8528584129003,454.90065049461634L712.3246875443855,457.5646867813314L705.3810292814153,466.8463934336262L700.3220782612511,468.32866614615443L698.7349563725724,463.68533417044813L698.9333466086571,456.4792445804988L697.1478344838933,453.8155179658561L702.801956212312,454.50604301095575L710.0431998294096,451.15249359797247M579.502424485569,232.9257677542927L581.1887414922904,246.44665134005547L587.6364241650485,256.57480534942954L585.8509120402847,260.77278246299994L583.4702292072664,287.5655389565216L574.4434734654051,297.31882230357314L566.7062542580953,309.25767654058757L567.995790792647,315.04701337775737L554.9020352110459,320.0105908988337L549.8430841908819,317.9860775163826L543.4945966361663,317.8848002971939L537.245304199493,319.90941157012196L534.7654262484323,322.63956672441725L526.7306216869953,321.83099492944416L518.9934024796855,318.28987955549826L511.85135398063045,321.1232447966564L507.387573668721,315.75682923073543L500.5431105237932,313.62663359641897L491.81394013605916,315.14843083755653L488.63969635870137,317.07440414880296L488.24291588653165,321.1232447966564L484.57269651896166,325.1644166178844L484.1759160467919,332.31953921812044L483.1839648663676,334.9342456943823L486.15981840764056,341.65938791145913L483.4815502204949,348.0672379978563L477.2322577838217,354.75983355268505L476.4386968394822,364.7219097334855L476.6370870755671,377.53182895105425L467.61033133370574,378.820501286384L467.4119410976209,354.8596086670857L465.130453382645,346.7668630636054L460.46828283465067,343.6634802821167L461.5594291331174,338.3492500471594L470.88377022910606,334.6326937197837L474.05801400646385,330.6083656675193L477.82742849207625,326.27443443435686L484.1759160467919,332.31953921812044M461.5594291331174,338.3492500471594L452.63186850929856,337.14449178516867L449.6560149680256,338.3492500471594L431.0073327760484,338.3492500471594L431.5033083662605,351.1657196319471L423.46850380482357,347.26707917631217L418.21116254857463,348.96714413482937L412.45784570211356,347.6671872426248L407.7956751541193,343.1625996514854L410.77152869539225,330.2055545600062L417.1200162501079,327.0813736785317L420.69104049963545,317.68223102109425L426.84113781826625,318.5936372666275L430.2137718317089,312.10367876194834L437.0582349766367,310.7828356693664L447.6721126071769,303.2468774388574L455.9053074046988,304.6749079300384L455.3101366964442,307.8331085036929L462.15459984137203,320.5164149647841L471.3797458193182,327.0813736785317L474.05801400646385,330.6083656675193M708.6544681768155,563.651992062389L698.5365661364874,565.1874388817677L694.767151650875,571.6511424811664L687.5259080337775,574.9437479656007L680.5822497708073,583.8257559887422L665.6037869464001,582.479942363979M431.5033083662605,351.1657196319471L432.991235136897,361.93556688683395L430.2137718317089,365.31869148995224L426.74194270022383,375.4493125737949L430.2137718317089,387.83124805618456L419.5006990831263,386.44604491898986L405.0182118489312,388.82045878329757L390.83330996886343,394.45567592331946L390.33733437865124,389.9083844572982L391.6268709132029,381.8919955894738L382.30252981721424,375.94524276993235L384.5840175321902,372.07539418730573L382.89770052546885,367.506035429619L385.9727491847843,366.21367529273186L388.1550417817177,351.76504136047197L385.67516383065697,350.3664319761012L387.06389548325103,345.3657744054781L389.44457831626937,343.3629632240463L395.59467563490017,345.3657744054781L401.4471875994036,340.6567662346006L403.62948019633717,345.16556021023814L407.7956751541193,343.1625996514854M589.7195216439395,412.2218056834335L586.1484973944121,414.9825043901809L576.030595354084,412.51762290185275L565.4167177235437,412.9120349715156L549.1487183645849,411.72876109805L548.8511330104576,412.81343310819466L537.7412797897052,412.81343310819466L536.1541579010262,411.334310830415L536.9477188453658,403.54085768019456L529.210499638056,396.62928630454684L526.0362558606982,390.60059085063756L528.2185484576316,381.8919955894738L538.8324260881719,372.27393856122404L542.8994259279117,371.67827531508823L550.4382548991365,375.4493125737949L556.1915717455976,363.9260421965653L556.6875473358097,360.2427364465329L561.2505227657615,357.05384371881587L561.7464983559737,352.0646562746231L564.6231567792042,350.6661906859716L565.019937251374,346.0664082473463L571.1700345700048,335.93914946818535L576.3281807082112,334.029477051779L576.9233514164658,328.2912413091835L573.1539369308534,326.67794033739233L571.8644003963018,320.4152598128579L574.8402539375747,320.4152598128579L578.3120830690599,324.45775191433523L580.7919610201207,333.72781211080576L580.1967903118662,340.05500646695236L584.1645950335634,346.0664082473463L572.9555466947686,346.96696034398894L570.8724492158775,349.8667648369048L581.1887414922904,359.64505930023324L583.7678145613936,367.8042070853708M683.9548837842499,388.42479616208425L686.732347089438,392.47901859719934L691.9896883456869,395.14735822257114L694.96554188696,392.77555792898954L699.5285173169118,394.15921755562044L703.694712274694,392.77555792898954L707.0673462881366,397.91335905546333L712.423882662428,401.7641964723409L711.4319314820036,410.5453702296133L715.7965166758706,413.7994179310201L704.7858585731606,424.4443008141885L702.9011513303544,430.1593358254031L701.8100050318877,442.5754423546589L695.7591028312993,451.2511125658542L697.1478344838933,453.8155179658561M564.5239616611618,480.10179292721654L558.3738643425311,481.7859102463282L556.29076686364,479.3094768041359M563.5320104807375,469.91014916537233L558.9690350507857,474.2614538574369L556.29076686364,479.3094768041359L554.6044498569187,473.0743975757931L560.9529374116343,467.8345364507211L563.5320104807375,469.91014916537233L565.9126933137559,471.1954138257664L574.4434734654051,466.8463934336262L574.6418637014899,471.6898224759783L578.3120830690599,471.39317214991536L581.3871317283753,467.34044572206415L587.0412534567938,464.080386362576L589.8187167619819,459.1437556832158L590.0171069980668,448.78588396726116L595.0760580182309,441.5898630611309L602.7140821074981,435.38157216799516L604.301203996177,427.99162162129545L603.7060332879224,422.4734249740947L605.3923502946437,412.9120349715156L609.9553257245957,404.72508833376406L610.0545208426381,401.8629101406648M554.6044498569187,473.0743975757931L552.9181328501973,469.41589123536374L547.1648160037362,463.9816212268522L553.1165230862822,460.72312899089553L550.8350353713062,450.6594114345402L563.0360348905253,450.6594114345402L570.3764736256653,451.8428444698195L573.2531320488958,450.46218440678786L575.3362295277869,442.67400290160754L575.5346197638718,436.26840166700197L570.2772785076229,429.3710803984475L575.2370344097445,423.36033488033144L572.8563515767261,419.4182716530454L565.019937251374,420.7980689377331L565.4167177235437,412.9120349715156M809.0399276357566,325.7699495610085L796.1445622902405,311.59576710512687L789.9944649716097,308.4437669708081L775.9087582095844,308.95250072724224L771.444977897675,304.8788228240906L768.7667097105293,311.49416906993565L760.0375393227953,310.27458209032295L759.1447832604134,302.9407275315208L763.5093684542803,293.0136986675451L764.0053440444925,285.8142387668141L775.2143923832873,280.65237742897045L777.3966849802209,277.65079909653525L780.1741482854089,282.9256390958998L782.7532213545121,294.2448227686546L784.8363188334033,298.54692060666173L788.4073430829309,299.8764070891326L790.4904405618219,304.0630293694486L798.8228304773861,307.01859349749475L803.1874156712532,313.0175914810244L808.3455618094596,316.1623272092192L812.3133665311569,322.1342449223422L815.2892200724299,323.6498567458465M319.01604450614263,181.02698367665252L314.35387395814837,186.509698227728L312.2707764792573,183.1564606249267L319.01604450614263,181.02698367665252M813.6029030657085,338.2488756408435L812.9085372394115,344.9653312391285L817.7690980234906,351.76504136047197L822.8280490436548,355.358435397681L847.6268285542628,363.82654591760445L855.959218469827,363.82654591760445L843.2622433603958,376.14359843970817L830.5652682509644,389.80949090544823L822.4312685714849,389.4138992183455L815.2892200724299,391.9847537272919L812.5117567672418,395.0485510469506L804.972927796017,397.6170558829787L798.4260500052164,397.81459273505783L795.5493915819859,395.0485510469506L787.9113674927187,398.604684385235L784.4395383612335,401.9616225786601L773.2304900224387,400.6782637204703L762.715807509941,393.862745165683L754.9785883026311,392.2813175678716L753.986637122207,386.3470878175562L748.034930039661,383.7735266799491L745.0590764983881,375.2509239965528L736.5282963467389,366.6113738521704L730.8741746183202,365.4181452841633L731.965320916787,360.34233869313596L738.6113938256299,359.94391154253555L739.5041498880119,351.4653958528828L741.1904668947332,341.96009910146313L746.8445886231518,335.93914946818535L752.3995152335281,324.76063594933726L756.6649053093527,323.54884886005584L760.0375393227953,310.27458209032295M547.1648160037362,463.9816212268522L543.0978161639965,458.74896058968994L536.9477188453658,453.61823382806614L531.491987353032,445.9268021627199L527.7225728674196,437.15524918569974L531.6903775891168,434.3962235099323L531.9879629432442,425.8238462783308L536.1541579010262,422.67051847012203L549.0495232465424,422.5719718994878L548.8511330104576,412.81343310819466M452.63186850929856,337.14449178516867L453.22703921755317,341.2583857138345L457.095648821208,344.1642668771035L457.095648821208,357.1535449239088L459.1787463000991,359.64505930023324L459.4763316542263,369.49339203889616L458.3851853557596,373.66347123439084L463.94011196613576,379.8115324101498L447.3745272530496,387.23763412821495L436.56225938642456,391.292713457639L427.93228411673294,388.3258760099169L427.93228411673294,388.1280302797077L430.2137718317089,387.83124805618456M382.89770052546885,367.506035429619L379.22748115789886,370.08939310741334L374.96209108207427,368.59921331212047L375.06128620011674,363.5280398603661L372.87899360318323,359.64505930023324L367.91923770106166,359.64505930023324L364.64579880566134,352.66379480194473L359.58684778549735,346.86691351266506L349.27055550908443,347.96723066631523L347.58423850236306,351.6651629298L342.62448260024144,354.95938051950355L339.84701929505337,349.7668209755865L331.2170440253618,342.4612077163503L328.1419953660464,338.5499868604947L331.0186537892769,333.9289262752662L339.0534583507139,332.21891637810586L339.0534583507139,323.952852370049L344.5091898430477,324.2558060429214L350.4608969255936,327.0813736785317L358.594896605073,326.27443443435686L364.2490183334917,330.6083656675193L368.0184328191041,327.88802386682306L372.5814082490559,329.5004665950131L378.7315055676867,326.3753177290995L379.9218469841959,332.6213821016878L384.48482241414774,338.4496204521939L387.06389548325103,345.3657744054781M313.8578983679362,326.87966605956865L313.65950813185134,320.61756529552486L315.24663002053023,316.0609602643889L323.97580040826426,316.1623272092192L321.39672733916103,319.80822739187397L313.65950813185134,320.61756529552486M328.1419953660464,338.5499868604947L325.3645320608583,337.044069008407L323.47982481805207,331.0111071076802L320.20638592265186,331.7157378796513L313.8578983679362,326.87966605956865L322.6862638737126,325.9717572089306L326.7532637134524,323.85185849615516L339.0534583507139,323.952852370049M536.1541579010262,422.67051847012203L532.880719005626,420.20673821891137L536.1541579010262,415.0810904417888L536.1541579010262,411.334310830415M804.972927796017,397.6170558829787L797.2357085887073,407.3890344646869L797.3349037067497,438.239202818392L801.9970742547439,445.2367621742473L796.7397329984951,448.39149261757115L796.0453671721981,450.8566417813975L790.5896356798643,454.1114514076486L790.1928552076947,458.2554930688421L785.3322944236154,467.9333592556122L782.3564408823424,470.2067236563035L770.4530267172506,461.6116666895605L769.3618804187838,456.4792445804988L748.9276861020429,445.03961336058046L738.0162231173754,439.42174004587514L738.0162231173754,430.06080406303647L747.0429788592367,416.95410271120613L746.646198387067,410.2495033877642L742.5791985473272,404.5277278426002L738.7105889436724,395.64137144620963L742.0832229571151,392.2813175678716L749.3244665742126,389.2160928277596L754.9785883026311,392.2813175678716M390.83330996886343,394.45567592331946L384.8816028863175,392.57786666520417L376.2516276166259,387.83124805618456L366.9272865206373,379.1178336929935L358.8924819592003,374.75491100599623L357.900530778776,372.8695118478859L365.14177439587354,365.7164898991445L367.91923770106166,359.64505930023324M663.322299231424,241.99106290966873L663.2231041133816,259.93419550213605L654.8907141978174,259.93419550213605L654.8907141978174,264.4357767359072L630.0919346872093,251.30926020746375L617.6925449319053,244.75108954265332L587.9340095191758,228.85147476665003L579.502424485569,232.9257677542927L573.2531320488958,236.3462921422956L567.0038396122226,231.3191217225774L554.3068645027913,228.20691204030135M533.7734750680079,165.07902238716235L540.0227675046812,158.44139904093203L538.7332309701295,153.60528942965465L545.0817185248452,146.41943345982764L549.9422793089243,144.08921105597034L550.4382548991365,136.00287988276284L557.4811082801491,139.52774601574532L565.9126933137559,138.82389886908493L581.2879366103328,143.97254111896763L583.7678145613936,151.06194187114596L588.4299851093879,154.87433124874337L599.5398383301404,156.71710790588838L606.2851063570257,159.70385887168266L612.9311792658686,164.62274675378012L616.006227925184,164.39452692274637L621.8587398896875,159.35972041958678L620.9659838273056,150.59875550963739L626.322520201597,142.22066425119385L635.051690589331,138.5891585679579L647.451080344635,141.4019436037686L647.5502754626774,144.55573907841818L655.8826653782417,147.69849291855144L663.322299231424,148.0470137424013L664.7110308840181,151.17770179557766M696.8502491297661,684.1153141056282L700.6196636153786,688.2885553835733L698.2389807823602,693.84282554749L691.6921029915596,696.2330416666559L689.013834804414,700.9170020757879L683.260517957953,697.4874476568453L680.3838595347223,691.0050446582497L686.5339568533532,684.1153141056282L694.1719809426204,681.1932369365535L696.8502491297661,684.1153141056282M381.31057863678996,189.7407405125122L380.71540792853534,194.1808735258426L372.4822131310135,197.27782138836653L362.5627013267703,195.84108144829938L355.8174332998849,204.32300873666637L353.2383602307817,204.9811495650527L349.865726217339,216.1101745339848L344.6083849610901,220.1202835707401L342.525287482199,224.00877127973592L336.8711657537804,228.20691204030135L334.8872633929318,239.22507864242738L329.72911725472534,246.97606358987673L311.47721553491783,247.18776869551732L313.16353254163914,240.82157192461042L323.1822394639248,223.57735251825653L329.1339465464707,217.5207237646545L330.2250928449375,210.450403236201L333.30014150425285,202.89567205347166L339.9462144130958,198.8229105093007L345.40194590542956,187.29053592785544L357.80133566073357,183.38035479172837L365.4393597500008,177.09237162664226L373.17657895731054,166.1048452829944L371.4902619505892,153.60528942965465L375.5572617903289,147.46607117318268L376.45001785271074,142.1037502020207L384.98079800435994,133.7631231249082L396.88421216945176,127.36578519315708L401.3479924813612,118.88104512353692L404.4230411406766,109.58123745979844L408.7876263345436,108.1224399063372L409.28360192475577,108.9737206659658L414.0449675907925,115.14947875912071L417.4176016042352,116.11406124422598L429.321015769327,114.30455067673694L429.6186011234543,114.78747190827517L435.3719179699154,116.71635895578288M867.4658521627491,532.9973507316392L872.4256080648707,541.1742566710886L875.3022664881012,557.115409745591L877.087778612865,560.8915099734181L874.9054860159315,566.4167600905539L869.8465349957675,562.8336290435002L871.6320471205312,571.6511424811664L868.160217989046,578.0365481946158L867.5650472807915,588.0779208245715L860.8197792539062,607.2079326921819L855.3640477615725,624.3683810439434L852.5865844563843,636.8007535226839L848.9163650888142,646.536689148531L835.1282436809163,652.7458631345226L825.7047074668853,649.8004046573767L822.9272441616972,647.4060948191424L819.7530003843393,639.9290185761647L819.1578296760847,629.7116566633952L816.0827810167693,622.3439157700948L818.2650736137028,614.5953853118497L826.6966586473095,601.2218843422834L826.4982684112247,596.8273660212001L823.0264392797396,588.0779208245715L822.1336832173577,579.5851641147374L829.8709024246674,568.7753872512459L842.171097061929,563.54967616044L854.0745112270207,554.6701349418674L855.6616331156997,549.4842567352712L862.7044864967124,544.1093295033317L864.1924132673489,539.2534774504566L862.60529137867,536.1232166638881L867.4658521627491,532.9973507316392M489.4332573030408,267.56807169069975L489.0364768308711,291.5762692026006L486.45740376176786,297.6259265740881L483.38235510245244,300.7962455836769L465.2296485006874,301.40921186568835L462.15459984137203,303.9610300338688L455.9053074046988,304.6749079300384M358.594896605073,326.27443443435686L358.0989210148609,320.5164149647841L353.535945584909,316.46639791132804L353.535945584909,311.08772442234726L351.25445786993305,305.79616509839747L353.73433582099386,305.79616509839747L355.8174332998849,299.1606523263308L371.58945706863165,300.69406440885246L375.6564569083713,299.5696899695621L407.8948702721617,299.5696899695621L409.1844068067133,292.5004698628273L406.90291909173743,290.5487894200537L403.33189484220986,256.57480534942954L401.4471875994036,239.22507864242738L398.768919412258,214.5891718287753L413.6481871186228,214.5891718287753M351.25445786993305,305.79616509839747L333.89531221250746,289.62352241267735L317.3297274994213,290.8570988676358L315.4450202566151,296.80686322009433L316.1393860829121,289.52068349908586L319.8096054504821,277.9615744933968L318.3216786798456,268.92331393903964L316.0401909648697,266.42034786564284L318.3216786798456,258.045537370969L316.7345567911667,254.89204457727186L311.17963018079047,253.10183746681207L311.97319112513003,248.03424860316366L345.00516543325983,248.03424860316366L345.00516543325983,232.7116699744822L353.33755534882414,228.42180460921966L353.33755534882414,205.31007145826973L381.31057863678996,205.20044181054817L381.31057863678996,193.29435642059673M732.1637111528719,549.5858085696258L728.1959064311745,545.7304528595802L730.4773941461506,542.6918856966453L732.659686743084,532.8965879528783L732.8580769791689,522.9422277119133L736.1315158745692,520.134104218614L731.965320916787,511.8273481698377L729.7830283198534,510.12899839221296L733.8500281595932,511.8273481698377L739.0081742977998,510.7283027849568L742.8767839014545,514.7268602035011L743.8687350818789,523.8454950834728L746.9437837411942,528.5679126339597M621.4619594175178,645.1253167471594L621.4619594175178,679.5112936941837L613.9231304462929,684.678236521923L599.8374236842676,682.2037576548055L599.3414480940554,677.6084754710122L595.572033608443,676.2674554711284L592.1993995950004,680.9688151221238L585.4541315681149,675.03973466279L582.1806926727147,669.0338810295207L578.4112781871023,654.4950033279504L577.8161074788477,645.5593996724045L575.137839291702,638.0942021400092L575.5346197638718,625.0083633566184L566.2102786678831,609.3144921935252L564.2263763070346,603.4242708934755L556.985132689937,590.4684853098047L553.3149133223669,585.5874234236105L552.62054749607,577.727003534586M567.995790792647,315.04701337775737L571.8644003963018,320.4152598128579M526.0362558606982,390.60059085063756L523.5563779096374,392.77555792898954L514.1328416956063,392.380168899495L512.446524688885,394.25803856392923L505.2052810717875,395.14735822257114L500.9398909959629,392.08360998599005L495.98013509384134,381.8919955894738L490.9211840736773,377.63097109980833L483.67994045657974,376.83777007532944L476.6370870755671,377.53182895105425M311.17963018079047,253.10183746681207L311.47721553491783,247.18776869551732M763.0133928640682,241.99106290966873L743.5711497277516,241.99106290966873L715.7965166758706,241.99106290966873L690.9977371652626,241.99106290966873L663.322299231424,241.99106290966873L663.322299231424,215.34992698683195L663.322299231424,189.62949380749055L663.322299231424,175.17563302649685L660.8424212803633,165.87697983361466L663.4214943494665,159.70385887168266L662.3303480509998,153.8361542041378L664.7110308840181,151.17770179557766L682.8637374857832,153.8361542041378L697.2470296019358,159.24497951179364L708.3568828226882,152.565680703034L715.5981264397858,151.8719540093008L722.541784702756,156.83216003160612L735.9331256384844,156.48696091947033L740.4961010684362,154.5284019289092L745.753442324685,169.85683645093036L744.1663204360061,179.1178255460991L740.6944913045211,188.62773378594295L734.8419793400176,189.96319803136365L739.0081742977998,199.59461731261192L751.5067591711461,224.00877127973592L753.093881059825,233.5678374651279L763.0133928640682,241.99106290966873L765.2948805790442,249.40862253531444L765.9892464053412,262.9717087880988L767.6755634120625,270.06908537658194L777.3966849802209,277.65079909653525M739.5041498880119,351.4653958528828L738.0162231173754,345.16556021023814L732.0645160348295,339.55343212309543L731.1717599724475,333.22495291874236L732.2629062709143,327.88802386682306L725.0216626538167,332.21891637810586L725.6168333620714,337.8473379117729L715.6973215578282,348.56722128395256L711.6303217180885,349.06711602668776L705.4802243994577,344.46469393107054L695.659907713257,352.56394680494384L689.013834804414,352.4640954441686L687.7242982698624,350.2665054890723L676.5152499310675,350.8660125776962L670.5635428485216,343.2627833274878L664.215055293806,344.2644129613458L661.7351773427451,348.4672317280594L659.7512749818966,356.25611976935176L656.4778360864963,357.95104115390325M645.5663731018287,338.9514126172926L651.9148606565444,347.5671656101388L650.7245192400353,357.1535449239088L656.4778360864963,357.95104115390325L656.1802507323689,360.84030471278453L662.0327626968724,362.33375523304727L666.4965430087819,369.39404938363333L675.027323160431,375.151726155309L676.4160548130251,380.4060465125214L681.2766155971043,382.58527720264476L683.9548837842499,388.42479616208425L675.721688986728,388.52371451127243L668.3812502515882,385.85227384586824L666.0005674185697,388.82045878329757L658.957714037557,388.1280302797077L649.9309582956957,392.47901859719934L645.8639584559561,390.5017093865999L642.4913244425134,396.036555092299L626.6201055557242,394.0603949892856L619.2796668205842,387.9301772867674L613.9231304462929,389.80949090544823L610.8480817869776,394.25803856392923L610.0545208426381,401.8629101406648L599.242252976013,400.6782637204703L592.7945703032549,401.9616225786601L589.7195216439395,412.2218056834335L588.8267655815577,406.9944235835666L580.395180547951,398.40716976920004L575.7330099999567,386.74290491384227L577.3201318886356,378.4240270390032L583.7678145613936,367.8042070853708L591.2074484145761,366.5119533412249L594.4808873099763,367.506035429619L602.1189113992435,363.82654591760445L609.7569354885109,363.32902142832137L614.2207158004203,358.05071407229025L614.0223255643355,355.1589144560594L624.6362031948756,354.2609088962921L635.4484710615006,344.76508745621425L636.0436417697553,341.358642056548L642.1937390883861,338.2488756408435L645.5663731018287,338.9514126172926L643.2848853868529,329.80267348936485L640.0114464914526,323.3468190437545L638.9203001929858,314.5398498164503L645.9631535739984,302.838666258374L647.5502754626774,297.7282828309966L654.9899093158598,297.6259265740881L654.8907141978174,264.4357767359072M738.7105889436724,395.64137144620963L734.94117445806,399.3946884351894L730.6757843822354,398.50592776369314L721.6490286403741,400.8757174011488L714.9037606134887,399.29594264610387L712.423882662428,401.7641964723409M408.7876263345436,108.1224399063372L409.28360192475577,108.9737206659658M429.321015769327,114.30455067673694L429.6186011234543,114.78747190827517M315.24663002053023,316.0609602643889L310.08848388232377,306.9167546063394L315.4450202566151,296.80686322009433M357.900530778776,372.8695118478859L349.27055550908443,368.89729665996134L346.195506849769,365.2192348938855L342.62448260024144,354.95938051950355M816.2811712528542,334.13002363059735L813.6029030657085,338.2488756408435L804.1793668516775,338.5499868604947L803.7825863795078,333.6272487136793L809.0399276357566,325.7699495610085L815.2892200724299,323.6498567458465L817.4715126693634,329.7019422552808L816.2811712528542,334.13002363059735L824.9111465225458,342.8620259017414L830.6644633690069,343.2627833274878L837.7073167500196,339.352774789967L843.1630482423534,340.8573216003143L850.8010723316206,336.7427762969611L863.994023031264,336.1400807482234L863.994023031264,351.4653958528828L855.959218469827,363.82654591760445M863.994023031264,336.1400807482234L875.2030713700588,333.22495291874236L879.5676565639258,329.80267348936485L882.3451198691139,333.9289262752662L882.4443149871563,341.05786141465654L880.6588028623926,343.9639634873649L879.9644370360955,351.3655071977547L875.3022664881012,359.64505930023324L871.6320471205312,364.02553561272964L864.0932181493065,380.6042006563064L843.2622433603958,376.14359843970817M864.0932181493065,380.6042006563064L855.7608282337421,393.5662586397361L839.5920239928257,410.5453702296133L827.2918293555642,417.9398110289649L818.1658784956604,425.8238462783308L806.5600496846959,438.239202818392L801.9970742547439,445.2367621742473M723.0377602929682,664.4968416017598L721.847418876459,669.0338810295207L715.0029557315311,668.036269502009L711.9279070722157,663.3931893204008L714.7053703774038,655.808678012578L721.6490286403741,656.2469184628303M467.61033133370574,378.820501286384L463.94011196613576,379.8115324101498M526.1354509787407,97.59036010400729L524.4491339720194,100.66620876861919L523.0604023194253,121.27972424185128L516.7119147647096,128.91022315941706L518.9934024796855,135.7673857926381L523.7547681457222,142.22066425119385L529.8056703463106,147.11732658639426L533.7734750680079,165.07902238716235L536.3525481371112,175.73976616594797L535.9557676649414,183.93987359101362L537.245304199493,187.73646194975447L535.4597920747292,193.18348904787933L536.4517432551536,200.58599614627227L532.7815238875836,204.21328001344665L537.5428895536203,210.88678143929553L538.0388651438325,215.8930126151128L550.9342304893487,221.3098039148882L554.3068645027913,228.20691204030135L543.9905722263784,234.7440976744021L516.7119147647096,252.15312300511047L502.92379335681153,264.5402958747432L489.4332573030408,267.56807169069975L481.79523321377354,269.0275116704031L481.0016722694341,261.71559706796165L469.8918190486817,257.83552837291234L463.64252661200845,252.7856733293211L463.64252661200845,250.0424692518056L435.7686984420851,230.46137867383618L413.6481871186228,214.5891718287753L396.1898463431547,203.11538430884016L381.31057863678996,193.29435642059673L381.31057863678996,189.7407405125122L381.31057863678996,180.1290101339283L390.2381392606088,173.25515485953997L405.8117727932707,171.104265849079L417.4176016042352,162.338076343645L423.46850380482357,160.3917572988969L423.3693086867811,151.29344707081304L430.31296694975134,149.78761339615858L432.991235136897,146.41943345982764L443.6051127674372,147.00104849752034L443.8035030035221,143.85585599167695L440.03408851790965,135.41402596055042L439.04213733748537,120.08123894647741L435.3719179699154,116.71635895578288L462.7497705496266,102.26100823461923L476.04191636731247,101.03451977967029L478.62098943641575,98.9451881508956L494.0954278510351,97.96008632658737L498.46001304490215,100.66620876861919L514.9264026399458,96.23323019600048L520.2829390142372,98.45278880906051L526.1354509787407,97.59036010400729L534.9638164845171,93.38809144924323L542.3042552196571,99.31428914500862L542.8994259279117,108.85216328086415L547.1648160037362,115.51132813834477L542.8002308098692,122.23728898843245L538.8324260881719,124.5071776764662L540.6179382129357,130.80727510197198L547.0656208856938,132.34557154050685L550.4382548991365,136.00287988276284M782.3564408823424,470.2067236563035L778.8846117508574,481.5877468555374L779.4797824591119,484.2636914890353L784.6379285973184,488.52882184745977L783.0508067086396,494.78600341738405L783.0508067086396,500.85482112205113L786.1258553679548,508.3318148117895L787.4153919025065,514.5267978891807L792.7719282767978,519.232137778468M729.7830283198534,510.12899839221296L713.4158338428522,502.8469675388485L711.6303217180885,499.85919796044544M709.3488340031125,439.9144785828841L712.3246875443855,439.42174004587514L738.0162231173754,439.42174004587514M729.5846380837686,664.6072697821861L723.0377602929682,664.4968416017598L721.6490286403741,656.2469184628303L722.0458091125438,642.0913134591443L718.0780043908466,632.8214339046364L716.1932971480403,623.622147118554L725.517638244029,613.6432748150512L726.0136138342411,608.1554802566609L730.7749795002778,600.174339462497L728.5926869033443,596.4095421854348L730.4773941461506,588.4933994545248L730.6757843822354,578.7590500029L729.6838332018111,572.9879793586707L721.3514432862469,570.5208012155754L715.895711793913,567.0317449236081L708.7536632948579,566.8267258551517L708.6544681768155,563.651992062389L707.166541406179,557.9312100269633L732.1637111528719,549.5858085696258L735.5363451663145,553.9575236130797L741.7856376029878,552.83824088589L743.670344845794,560.4829082091602L740.7936864225635,565.8019917713796L742.0832229571151,568.4675576369349L749.0268812200853,571.0344990476397L753.8874420041645,566.8267258551517L754.3834175943766,555.2811569579667L746.3486130329397,545.4263949051726L743.4719546097091,543.6029889851006L741.7856376029878,534.005222876974L744.364710672091,528.5679126339597L746.9437837411942,528.5679126339597L757.2600760176072,529.6744898309331L762.5174172738562,528.5679126339597L767.5763682940201,529.8757411002349L771.3457827796325,526.4567709463104L776.503928917839,527.2607983533121L789.2009040272703,522.139593455721L792.7719282767978,519.232137778468L794.1606599293918,522.139593455721L792.3751478046281,526.5572598702382L793.6646843391798,532.1913721230727L794.2598550474343,550.7032232205397L796.1445622902405,553.4486779567748L793.962269693307,562.526839396271L787.4153919025065,570.8290012250573L781.5628799380031,575.3557836085979L771.6433681337599,578.6558156176939L766.4852219955534,581.5489007038539L757.6568564897768,592.1337371844231L752.7962957056977,594.3222245258995L746.2494179148972,600.8027732226124L744.5631009081759,605.1046175440492L751.4075640531037,621.2797073793633L751.1099786989764,639.7130090361441L748.1341251577035,643.7156797980058L736.6274914647813,648.3849724526506L729.3862478476838,652.4182060348321L727.7991259590049,658.4407569782068L729.5846380837686,664.6072697821861L725.3192480079441,680.7444434842951L715.3005410856584,690.4384846093699L708.6544681768155,702.8659664840317L695.8582979493417,717.0909893143344L687.7242982698624,724.5820966835115L676.1184694588978,731.6633598096064L671.4562989109036,731.3079237758221L668.4804453696305,734.6310399694506L662.2311529329573,736.0591784647352L652.0140557745868,734.0366841197537L643.5824707409802,734.1555223634286L635.8452515336704,738.0864723488028L625.9257397294273,738.8031426549869L621.1643740633905,742.3956251710424L611.641642731317,737.8477165276586L603.60683816988,722.4688270999626L607.0786673013652,720.594591698148L606.2851063570257,710.9344028438475L598.8454725038433,698.0581789025642L594.877667782146,685.8050419151998L592.1993995950004,680.9688151221238M699.9252977890815,621.70528377767L716.1932971480403,623.622147118554M649.9309582956957,581.1352806211934L656.9738116767085,579.7917592309229L663.1239089953392,580.4117050586713L665.6037869464001,582.479942363979L671.3571037928612,592.4461796363485L672.94422568154,597.5588489100304L686.0379812631411,606.5765995588969L685.8395910270561,611.8467104264271L688.5178592142017,615.9718746117959L697.3462247199783,618.1985063771294L699.9252977890815,621.70528377767L691.791298109602,625.2217634938534L680.28466441668,634.97077495601L678.9951278821284,640.469216824807L670.8611282026488,646.3194414004644L668.3812502515882,653.1828895439621L661.7351773427451,655.1516448273425L654.4939337256476,653.2921730261874L650.5261290039504,650.0183213681154L646.756714518338,650.2362803384647L644.3760316853195,656.5757137313312L635.746056415628,664.7177094365996L626.8184957918091,664.0552434792497L628.2072274444032,655.6991452191563L624.6362031948756,647.7322934696871L621.4619594175178,645.1253167471594L621.3627642994753,620.0038296469374L629.6951542150396,620.0038296469374L629.7943493330821,587.1435088640659L648.8398119972289,584.3436857762645L652.1132508926293,588.3895191250358L655.5850800241144,585.3800643198863L665.6037869464001,582.479942363979"/></g><g class="legend" transform="translate(25,25)" style="cursor: pointer;"><rect x="0" width="21" height="21" style="fill: rgb(213, 62, 79);"/><rect x="24" width="21" height="21" style="fill: rgb(244, 109, 67);"/><rect x="48" width="21" height="21" style="fill: rgb(253, 174, 97);"/><rect x="72" width="21" height="21" style="fill: rgb(254, 224, 139);"/><rect x="96" width="21" height="21" style="fill: rgb(255, 255, 191);"/><rect x="120" width="21" height="21" style="fill: rgb(230, 245, 152);"/><rect x="144" width="21" height="21" style="fill: rgb(171, 221, 164);"/><rect x="168" width="21" height="21" style="fill: rgb(102, 194, 165);"/><rect x="192" width="21" height="21" style="fill: rgb(50, 136, 189);"/><rect x="240" width="21" height="21" style="fill: rgb(255, 255, 255);"/><rect x="264" width="21" height="21" style="fill: rgb(240, 240, 240); stroke: rgb(0, 0, 0);"/><rect x="288" width="21" height="21" style="fill: rgb(217, 217, 217);"/><rect x="312" width="21" height="21" style="fill: rgb(189, 189, 189);"/><rect x="336" width="21" height="21" style="fill: rgb(150, 150, 150);"/><rect x="360" width="21" height="21" style="fill: rgb(115, 115, 115);"/><rect x="384" width="21" height="21" style="fill: rgb(82, 82, 82);"/><rect x="408" width="21" height="21" style="fill: rgb(37, 37, 37);"/><rect x="432" width="21" height="21" style="fill: rgb(0, 0, 0);"/></g></svg>